<svg xmlns="http://www.w3.org/2000/svg" xmlns:xlink="http://www.w3.org/1999/xlink" width="160" height="160" viewBox="0 0 160 160">
  <defs>
    <clipPath id="clip-path">
      <path id="Path_1972" data-name="Path 1972" d="M0,0H160V160H0Z" transform="translate(-1731 -504)" fill="#fff" stroke="#707070" stroke-width="1"/>
    </clipPath>
  </defs>
  <g id="Mask_Group_39" data-name="Mask Group 39" transform="translate(1731 504)" clip-path="url(#clip-path)">
    <g id="Group_335" data-name="Group 335" transform="translate(-1898.667 -921)">
      <rect id="Rectangle_432" data-name="Rectangle 432" width="469" height="370" transform="translate(5.667 317)" fill="#fff"/>
      <g id="_2565fd5a-92c9-4155-bd85-8643d41d5f0f_1_" data-name="2565fd5a-92c9-4155-bd85-8643d41d5f0f (1)" transform="translate(5.902 298)">
        <path id="Path_942" data-name="Path 942" d="M0-353v199H468.59V-552H0Zm247.219-50.183c9.486,3.605,14.834,7.715,20.564,15.862a45.445,45.445,0,0,1,7.513,15.141c1.846,5.84,2.419,6.129,8.468,3.966,4.2-1.442,6.239-1.73,13.561-1.73,7.958,0,8.85.144,12.161,1.875a19.49,19.49,0,0,1,10.441,19.684c-1.019,9.157-6.239,14.853-15.471,17.088-4.775,1.154-12.606.793-26.931-1.226l-3.565-.433-3.056,5.191c-8.913,15.213-21.838,23.072-37.946,23.072a52.149,52.149,0,0,1-18.018-3.966c-7.576-3.605-16.044-12.113-20.055-20.116a17.749,17.749,0,0,0-3.12-4.687c-.637-.36-2.929-.288-5.475.144-8.786,1.514-18.081-1.37-21.456-6.778-1.21-1.947-1.337-2.884-1.082-7.931.318-6.129,1.337-8.219,4.966-10.382,1.846-1.082,10.059-2.524,14.389-2.524,4.393,0,5.093-.721,6.94-7.787,2.292-8.364,5.412-14.925,9.677-20.26,3.947-4.975,10-10.094,14.58-12.474C223.408-406.067,237.733-406.788,247.219-403.183Z" transform="translate(0 552)" fill="#299a0b"/>
        <path id="Path_943" data-name="Path 943" d="M322.635-341.894c-7.64,1.586-15.79,6.561-21.647,13.267-6.558,7.5-12.351,20.26-11.142,24.659.573,2.019,1.719,2.524,10.824,4.254,11.142,2.163,45.713,12.185,46.986,13.627.446.5.446,1.37-.064,2.6-1.146,2.884-2.419,2.668-19.228-2.884a57.545,57.545,0,0,0-7.449-2.091,9.327,9.327,0,0,1-2.738-.793,13.65,13.65,0,0,0-3.311-.793,12.791,12.791,0,0,1-3.693-1.009c-.637-.36-1.273-.5-1.4-.36-.191.216-2.165-.288-4.393-1.082a31.7,31.7,0,0,0-6.621-1.73,27.9,27.9,0,0,1-5.221-1.081c-2.865-.865-3.375-.937-15.153-1.009-6.749-.072-7.958.072-10.314,1.514-4.52,2.668-5.03,4.9-1.974,9.445,2.547,3.677,6.3,5.119,12.8,5.047,5.157-.072,5.857-1.009,5.6-7.354l-.127-4.11h2.547c2.292,0,2.61.216,2.929,1.947a36.671,36.671,0,0,0,1.019,4.182c.382,1.154.828,2.812,1.019,3.605.764,2.884,4.52,8.652,8.722,13.411,2.228,2.524,11.46,8.292,13.752,8.58,10.314,1.37,15.6.433,22.093-3.893,4.266-2.812,8.468-6.922,8.468-8.148a2.325,2.325,0,0,1,1.21-1.586c2.547-1.586,7.7-14.492,7.7-19.251,0-2.956-1.846-5.263-4.266-5.48-1.019,0-2.547-.144-3.438-.216-5.221-.433-13.561-7.5-17.445-14.781-2.292-4.254-4.775-11.392-4.775-13.771,0-3.244,13.37-2.307,19.355,1.37C353.386-319.687,358.8-307.5,358.1-292.5a47.836,47.836,0,0,0,0,7.787c.382,1.226,4.329,3.028,6.621,3.028,2.419,0,3.438-2.307,4.393-9.878,2.547-19.612-8.977-40.593-26.422-48.02-4.2-1.8-11.205-3.461-14.007-3.317C327.983-342.9,325.245-342.4,322.635-341.894Z" transform="translate(-95.98 493.668)" fill="#299a0b"/>
        <path id="Path_944" data-name="Path 944" d="M370.687-314.821c-1.528,2.019.064,5.263,5.73,11.9,2.929,3.461,10.378,7.066,11.778,5.768,1.464-1.37,1.21-2.6-1.4-7.21-2.42-4.254-8.022-9.229-11.651-10.455-.891-.216-2.037-.649-2.61-.793A1.866,1.866,0,0,0,370.687-314.821Z" transform="translate(-134.482 486.062)" fill="#299a0b"/>
        <path id="Path_945" data-name="Path 945" d="M448.632-293.291c-5.284,1.514-11.715,4.687-12.479,6.129-.509.793-1.082,4.687-1.273,8.508a60.9,60.9,0,0,1-1.019,8.8c-.828,2.523.382,3.821,4.775,5.119,4.075,1.154,18.845,1.514,22.283.5,5.857-1.658,11.014-6.778,12.16-11.969,1.146-5.336-3.183-12.474-9.486-15.646C459.965-293.579,452.325-294.372,448.632-293.291Z" transform="translate(-157.546 479.962)" fill="#299a0b"/>
        <path id="Path_946" data-name="Path 946" d="M393.333-251.757a27.324,27.324,0,0,0-1.846,3.317c-2.61,5.84-13.052,16.079-18.336,17.881-3.183,1.082-4.329,2.307-3.12,3.389.573.577,2.356.433,6.494-.649a36.539,36.539,0,0,0,18.973-11.9c6.812-8,7.576-10.383,3.884-12.185C396.326-253.344,394.416-253.272,393.333-251.757Z" transform="translate(-134.272 468.567)" fill="#299a0b"/>
      </g>
    </g>
  </g>
</svg>
