<svg xmlns="http://www.w3.org/2000/svg" width="281.833" height="209.833" viewBox="0 0 281.833 209.833">
  <g id="Group_336" data-name="Group 336" transform="translate(0 0)">
    <path id="Path_947" data-name="Path 947" d="M820,604.854a20.482,20.482,0,0,1-5.225-15.635c.575-5.84,4.135-11.208,8.752-12.448s9.882,2.193,11.284,7.811c.772-10.831,1.661-22.116,6.285-31.34,4.187-8.352,11.438-14.328,19.3-15.4s16.133,2.969,21.035,10.694a32.562,32.562,0,0,1,2.669,27.826c-2.529,6.534-7.188,11.4-12.069,15.352-15.774,12.675-34.692,17.83-53.274,14.515Z" transform="translate(-604.219 -397.378)" fill="#f2f2f2"/>
    <path id="Path_948" data-name="Path 948" d="M917.795,545.681a147.038,147.038,0,0,0-17.761,21.965,170.81,170.81,0,0,0-20,41.634.762.762,0,1,0,1.429.491c8.051-24.491,20.9-46.077,37.384-62.784.74-.75-.314-2.05-1.048-1.305Z" transform="translate(-648.36 -402.021)" fill="#fff"/>
    <path id="Path_949" data-name="Path 949" d="M255.727,565.2a28.131,28.131,0,0,0,7.177-21.475c-.789-8.021-5.679-15.394-12.022-17.1s-13.573,3.012-15.5,10.728c-1.06-14.877-2.282-30.376-8.633-43.045-5.75-11.471-15.71-19.679-26.5-21.148s-22.159,4.078-28.891,14.688-8.38,26.036-3.665,38.218c3.473,8.974,9.872,15.653,16.577,21.086,21.39,17.334,47.924,24.564,73.172,19.936" transform="translate(-165 -358.752)" fill="#f2f2f2"/>
    <path id="Path_950" data-name="Path 950" d="M213.84,483.921a201.971,201.971,0,0,1,24.394,30.168,230.577,230.577,0,0,1,19.238,35.459q4.592,10.574,8.238,21.724a1.047,1.047,0,1,1-1.963.674,238.6,238.6,0,0,0-15.876-37.411,215.955,215.955,0,0,0-21.293-32.759A195.616,195.616,0,0,0,212.4,485.714c-1.016-1.031.432-2.815,1.44-1.793Z" transform="translate(-196.811 -365.128)" fill="#fff"/>
    <path id="Path_951" data-name="Path 951" d="M542.74,399.321H424.5V248.229c0-32.146,21-58.3,46.81-58.3h24.62c25.811,0,46.81,26.152,46.81,58.3Z" transform="translate(-340.436 -189.931)" fill="#f2f2f2"/>
    <path id="Path_952" data-name="Path 952" d="M518.12,399.323H424.5V248.232a67.865,67.865,0,0,1,8.94-34.271c.215-.365.43-.725.651-1.082a53.588,53.588,0,0,1,9.963-12.043c.214-.194.428-.384.646-.574a44.381,44.381,0,0,1,10.2-6.64c.214-.1.432-.2.65-.3a39.159,39.159,0,0,1,10.077-2.96c.213-.036.432-.065.651-.093a38.109,38.109,0,0,1,10.077,0c.218.028.437.057.652.093a39.151,39.151,0,0,1,10.075,2.959c.218.1.436.2.651.3a44.232,44.232,0,0,1,10.077,6.542c.218.186.435.376.65.567a51.807,51.807,0,0,1,5.955,6.279,56.414,56.414,0,0,1,4.122,5.87c.221.355.435.716.65,1.08a67.865,67.865,0,0,1,8.94,34.271Z" transform="translate(-340.436 -189.933)" fill="#ccc"/>
    <ellipse id="Ellipse_11" data-name="Ellipse 11" cx="5.183" cy="6.455" rx="5.183" ry="6.455" transform="translate(164.889 128.902)" fill="#299a0b"/>
    <path id="Path_953" data-name="Path 953" d="M582.367,479.573H578.4l-1.89-19.078h5.862Z" transform="translate(-389.749 -274.708)" fill="#ffb8b8"/>
    <path id="Path_954" data-name="Path 954" d="M563.518,504.28h7.659v6.006H558.7c0-3.317,2.159-6.006,4.823-6.006Z" transform="translate(-377.708 -300.828)" fill="#2f2e41"/>
    <path id="Path_955" data-name="Path 955" d="M643.367,479.573H639.4l-1.89-19.078h5.862Z" transform="translate(-430.988 -274.708)" fill="#ffb8b8"/>
    <path id="Path_956" data-name="Path 956" d="M624.518,504.28h7.659v6.006H619.7c0-3.317,2.159-6.006,4.823-6.006Z" transform="translate(-418.947 -300.828)" fill="#2f2e41"/>
    <path id="Path_957" data-name="Path 957" d="M696.845,450.625a5.239,5.239,0,0,1-.468-3.621,4.184,4.184,0,0,1,1.929-2.771l13.5-46.343,6.643,4.515-15.415,44.287a4.855,4.855,0,0,1-1.693,5.391,3.121,3.121,0,0,1-4.5-1.458Z" transform="translate(-524.15 -313.989)" fill="#ffb8b8"/>
    <path id="Path_958" data-name="Path 958" d="M803.652,468.023a4.43,4.43,0,0,1-1.7-3,5.128,5.128,0,0,1,.758-3.544l-4.182-49.023,7.56.43,1.738,48.221a5.167,5.167,0,0,1,.377,5.769,3.076,3.076,0,0,1-4.555,1.146Z" transform="translate(-593.302 -322.679)" fill="#ffb8b8"/>
    <ellipse id="Ellipse_12" data-name="Ellipse 12" cx="7.956" cy="9.909" rx="7.956" ry="9.909" transform="translate(190.333 55.499)" fill="#ffb8b8"/>
    <path id="Path_959" data-name="Path 959" d="M764.12,440.9H740.133l.029-.232c.043-.348,4.275-34.874,1.154-46.169a5.267,5.267,0,0,1,1.966-5.884h0c4.461-2.617,13.025-5.838,20.253,1.981a12.929,12.929,0,0,1,3.064,9.439Z" transform="translate(-553.821 -306.702)" fill="#299a0b"/>
    <path id="Path_960" data-name="Path 960" d="M731.817,415.791l-10.8-2.729,5.062-14.94c.626-3.02,3.1-4.836,5.524-4.056s3.883,3.86,3.257,6.879Z" transform="translate(-540.898 -311.6)" fill="#299a0b"/>
    <path id="Path_961" data-name="Path 961" d="M795.509,422.4l-.649-18.535c-.492-3.484,1.109-6.778,3.572-7.316s4.869,1.88,5.364,5.39l2.44,17.319Z" transform="translate(-590.759 -313.147)" fill="#299a0b"/>
    <path id="Path_962" data-name="Path 962" d="M760.625,517.049c3.86,18.307,4.281,41.583,3.24,66.973l-5.183-.807L749.287,534.8,744.1,584.022l-5.831-.4c-1.742-26.64-3.438-49.509-.648-64.552Z" transform="translate(-551.124 -385.073)" fill="#2f2e41"/>
    <path id="Path_963" data-name="Path 963" d="M762.413,338.307c-1.484,1.969-4.241.912-4.434-1.778a4.043,4.043,0,0,1,0-.628c.1-1.192.653-2.273.52-3.532a2.135,2.135,0,0,0-.272-.867c-1.183-1.973-3.959.882-5.076-.9-.685-1.095.12-2.819-.405-4.043-.693-1.615-2.747-.818-4.034-1.7-1.433-.984-1.347-3.722-.4-5.387a6.489,6.489,0,0,1,5.158-3.271,11.512,11.512,0,0,1,5.829,1.417,12,12,0,0,1,5.507,4.756,14.108,14.108,0,0,1,.942,9.885A19.336,19.336,0,0,1,762.413,338.307Z" transform="translate(-558.881 -265.241)" fill="#2f2e41"/>
    <path id="Path_964" data-name="Path 964" d="M505.049,708.153H265.881a.492.492,0,0,1,0-.961H505.049a.492.492,0,0,1,0,.961Z" transform="translate(-232.94 -498.503)" fill="#3f3d56"/>
    <path id="Path_965" data-name="Path 965" d="M541.719,419.676H499.606a2.386,2.386,0,0,1-2.106-2.588V300.019a2.386,2.386,0,0,1,2.106-2.588h42.113a2.386,2.386,0,0,1,2.106,2.588V417.087A2.386,2.386,0,0,1,541.719,419.676Z" transform="translate(-389.788 -254.06)" fill="#fff"/>
    <rect id="Rectangle_433" data-name="Rectangle 433" width="46.324" height="0.807" transform="translate(107.712 81.251)" fill="#ccc"/>
    <rect id="Rectangle_434" data-name="Rectangle 434" width="46.324" height="0.807" transform="translate(107.874 127.288)" fill="#ccc"/>
    <rect id="Rectangle_435" data-name="Rectangle 435" width="0.648" height="122.649" transform="translate(122.29 43.371)" fill="#ccc"/>
    <rect id="Rectangle_436" data-name="Rectangle 436" width="0.648" height="122.649" transform="translate(138.487 43.371)" fill="#ccc"/>
  </g>
</svg>
