<svg xmlns="http://www.w3.org/2000/svg" width="338" height="232" viewBox="0 0 338 232">
  <g id="Group_334" data-name="Group 334" transform="translate(0)">
    <path id="Path_878" data-name="Path 878" d="M336.67,432.994c-15.282-13.268-21.736-27.11-18.174-38.975,4.571-15.227,24.876-25.755,55.708-28.884l.114.873c-30.4,3.086-50.4,13.378-54.859,28.236-3.466,11.547,2.894,25.087,17.91,38.124Z" transform="translate(-266.502 -280.393)" fill="#f0f0f0"/>
    <path id="Path_879" data-name="Path 879" d="M538.058,618.959a269.355,269.355,0,0,1-60.384-7.306c-25.458-5.944-48.8-14.916-67.5-25.946l.554-.731c18.613,10.977,41.851,19.908,67.2,25.827,22.911,5.35,45.993,7.828,66.743,7.174l.036.878Q541.421,618.959,538.058,618.959Z" transform="translate(-320.449 -419.261)" fill="#f0f0f0"/>
    <path id="Path_880" data-name="Path 880" d="M717.989,485.47l-.319-.833c17.058-5.087,27.726-13.28,30.853-23.7,3.974-13.241-4.66-28.607-24.314-43.266C704.455,402.941,675.97,390.715,644,383.251l.255-.85c32.11,7.5,60.734,19.786,80.6,34.6,19.964,14.891,28.712,30.575,24.634,44.162C746.27,471.88,735.378,480.284,717.989,485.47Z" transform="translate(-456.625 -291.299)" fill="#f0f0f0"/>
    <path id="Path_881" data-name="Path 881" d="M332.726,585.562c-37.476-14.659-66.354-33.677-81.314-53.552l.83-.486c14.857,19.737,43.583,38.643,80.888,53.235Z" transform="translate(-227.991 -385.496)" fill="#f0f0f0"/>
    <path id="Path_882" data-name="Path 882" d="M745.178,729.669q-5.8,0-11.794-.228l.043-.878c29.832,1.139,56.154-2.01,76.124-9.107l.373.815C792.5,726.461,770.3,729.669,745.178,729.669Z" transform="translate(-508.679 -504.208)" fill="#f0f0f0"/>
    <path id="Path_883" data-name="Path 883" d="M537.665,340.509c-6.194-1.779-12.565-3.435-18.937-4.922-36.664-8.561-72.705-11.6-104.228-8.788l-.1-.875c31.641-2.821,67.805.226,104.584,8.813,6.389,1.492,12.778,3.153,18.99,4.936Z" transform="translate(-322.911 -254.979)" fill="#f0f0f0"/>
    <path id="Path_884" data-name="Path 884" d="M280.587,436.575c-15.282-13.268-21.736-27.109-18.174-38.975,4.571-15.227,24.876-25.755,55.708-28.885l.114.873c-30.4,3.086-50.4,13.378-54.859,28.236-3.466,11.547,2.894,25.087,17.91,38.124Z" transform="translate(-233.84 -282.655)" fill="#f0f0f0"/>
    <path id="Path_885" data-name="Path 885" d="M481.976,622.539a269.357,269.357,0,0,1-60.384-7.306c-25.458-5.944-48.8-14.916-67.5-25.946l.554-.73c18.613,10.977,41.851,19.908,67.2,25.827,22.911,5.35,45.993,7.828,66.743,7.174l.036.878Q485.339,622.539,481.976,622.539Z" transform="translate(-287.788 -421.522)" fill="#f0f0f0"/>
    <path id="Path_886" data-name="Path 886" d="M661.905,489.05l-.319-.833c17.058-5.087,27.726-13.28,30.853-23.7,3.974-13.241-4.66-28.607-24.314-43.266-19.754-14.734-48.239-26.959-80.209-34.424l.255-.85c32.11,7.5,60.734,19.786,80.6,34.6,19.964,14.891,28.712,30.575,24.634,44.162C690.187,475.46,679.295,483.864,661.905,489.05Z" transform="translate(-423.963 -293.561)" fill="#f0f0f0"/>
    <path id="Path_887" data-name="Path 887" d="M276.643,589.141c-37.476-14.659-66.354-33.677-81.314-53.552l.83-.486c14.857,19.737,43.583,38.643,80.888,53.235Z" transform="translate(-195.329 -387.757)" fill="#f0f0f0"/>
    <path id="Path_888" data-name="Path 888" d="M689.095,733.249q-5.8,0-11.794-.228l.043-.878c29.832,1.139,56.154-2.009,76.124-9.107l.373.816C736.419,730.041,714.215,733.249,689.095,733.249Z" transform="translate(-476.018 -506.469)" fill="#f0f0f0"/>
    <path id="Path_889" data-name="Path 889" d="M481.582,344.089c-6.194-1.779-12.565-3.435-18.937-4.922-36.664-8.56-72.705-11.6-104.228-8.788l-.1-.875c31.641-2.821,67.805.226,104.584,8.813,6.389,1.492,12.778,3.153,18.99,4.936Z" transform="translate(-290.25 -257.241)" fill="#f0f0f0"/>
    <path id="Path_890" data-name="Path 890" d="M218.3,472.618c7.162-7.082,18.587-11.4,28.94-8.815a44.105,44.105,0,0,0-19.346,24.7c-1.119,3.856-1.908,8.247-5.543,10.6a12.3,12.3,0,0,1-8.042,1.483,36.165,36.165,0,0,1-8.008-2.234l-.7.053C207.609,489.086,211.137,479.7,218.3,472.618Z" transform="translate(-201.312 -342.242)" fill="#f2f2f2"/>
    <path id="Path_891" data-name="Path 891" d="M247.3,464.911a43.6,43.6,0,0,0-22.223,12.023,16,16,0,0,0-3.077,4.25,8.224,8.224,0,0,0-.618,4.827,16.927,16.927,0,0,1,.479,4.605,5.593,5.593,0,0,1-2.716,3.953,18,18,0,0,1-6.163,2.144c-2.4.5-4.9.98-6.849,2.385-.237.17-.522-.164-.286-.334,3.4-2.444,8.123-2.13,11.884-3.906a5.936,5.936,0,0,0,3.6-3.912,13.125,13.125,0,0,0-.385-4.683,8.744,8.744,0,0,1,.4-4.74,14.594,14.594,0,0,1,2.88-4.339,39.859,39.859,0,0,1,9.572-7.56,46.293,46.293,0,0,1,13.444-5.13c.3-.063.35.353.056.415Z" transform="translate(-201.402 -343.152)" fill="#fff"/>
    <path id="Path_892" data-name="Path 892" d="M253.925,480.215a5.114,5.114,0,0,1-.2-7.258c.193-.209.569.046.376.255a4.737,4.737,0,0,0,.2,6.752C254.508,480.163,254.128,480.414,253.925,480.215Z" transform="translate(-228.516 -348.452)" fill="#fff"/>
    <path id="Path_893" data-name="Path 893" d="M242.243,516.7a13.385,13.385,0,0,0,8.513-2.377c.237-.17.523.164.286.333a13.927,13.927,0,0,1-8.865,2.458C241.872,517.1,241.939,516.686,242.243,516.7Z" transform="translate(-222.497 -374.604)" fill="#fff"/>
    <path id="Path_894" data-name="Path 894" d="M282.426,473.331a3.682,3.682,0,0,0,2.9,1.584c.305.015.238.429-.065.414a4.129,4.129,0,0,1-3.217-1.746.2.2,0,0,1,.046-.293A.26.26,0,0,1,282.426,473.331Z" transform="translate(-245.806 -348.686)" fill="#fff"/>
    <path id="Path_895" data-name="Path 895" d="M261.192,529.658c-.191,0-.382-.009-.575-.011a53.684,53.684,0,0,0-7.675.395c-.2.022-.4.046-.592.073a54.528,54.528,0,0,0-17.37,5.338,49.3,49.3,0,0,0-6.1,3.657c-2.657,1.87-5.368,4.083-8.478,5.041a9.212,9.212,0,0,1-.988.256l-14.433-8.795c-.021-.034-.045-.066-.067-.1l-.594-.328c.094-.076.193-.153.286-.229.054-.044.112-.086.166-.131.037-.029.074-.058.106-.086l.035-.026c.032-.028.064-.051.094-.076q.828-.647,1.67-1.287s0,0,.008,0a72.368,72.368,0,0,1,13.9-8.427c.15-.067.3-.138.459-.2a50.06,50.06,0,0,1,7.007-2.492q1.98-.537,4.015-.9a38.521,38.521,0,0,1,10.634-.359c7.065.744,13.781,3.472,18.16,8.316C260.974,529.409,261.083,529.531,261.192,529.658Z" transform="translate(-200.567 -378.696)" fill="#f2f2f2"/>
    <path id="Path_896" data-name="Path 896" d="M261.414,539.3a47.642,47.642,0,0,0-25.951-2.2,19.835,19.835,0,0,0-5.358,1.759,9.843,9.843,0,0,0-3.789,3.526,18.9,18.9,0,0,1-2.761,3.931,6.881,6.881,0,0,1-4.867,1.714,18.389,18.389,0,0,1-6.385-1.561c-2.253-.876-4.578-1.817-7.1-1.733a.21.21,0,1,1,0-.418c4.383-.147,7.94,2.612,12.155,3.192A7.14,7.14,0,0,0,222.9,546.3a14.763,14.763,0,0,0,2.889-3.944,10.36,10.36,0,0,1,3.559-3.57,18.169,18.169,0,0,1,5.262-1.935,46.441,46.441,0,0,1,12.8-.953,47.924,47.924,0,0,1,14.236,3.043c.279.107.039.468-.239.362Z" transform="translate(-200.948 -388.2)" fill="#fff"/>
    <path id="Path_897" data-name="Path 897" d="M284.563,527.331a5.72,5.72,0,0,1,4.8-5.9c.3-.064.423.339.127.4a5.294,5.294,0,0,0-4.451,5.5C285.064,527.6,284.589,527.6,284.563,527.331Z" transform="translate(-247.284 -379.117)" fill="#fff"/>
    <path id="Path_898" data-name="Path 898" d="M256.292,551.609a13.3,13.3,0,0,0,8.42,2.622.21.21,0,1,1,0,.418,13.825,13.825,0,0,1-8.756-2.745C255.726,551.729,256.062,551.434,256.292,551.609Z" transform="translate(-230.592 -398.15)" fill="#fff"/>
    <path id="Path_899" data-name="Path 899" d="M316.962,537.833a2.991,2.991,0,0,0,1.237,2.807c.233.174-.1.469-.335.3a3.353,3.353,0,0,1-1.377-3.1.232.232,0,0,1,.237-.209.226.226,0,0,1,.237.209Z" transform="translate(-265.874 -389.35)" fill="#fff"/>
    <path id="Path_900" data-name="Path 900" d="M874.669,617.7c-4.047-8.793-13.162-16.245-23.9-16.881a39.955,39.955,0,0,1,8.808,29c-.416,3.963-1.346,8.333,1.18,11.631a11.387,11.387,0,0,0,7.009,3.781,37.256,37.256,0,0,0,8.394.27l.637.257C878.461,636.384,878.715,626.5,874.669,617.7Z" transform="translate(-577.043 -429.272)" fill="#f2f2f2"/>
    <path id="Path_901" data-name="Path 901" d="M850.5,600.654a38.687,38.687,0,0,1,16.348,17.911,14.519,14.519,0,0,1,1.278,4.915,8.358,8.358,0,0,1-1.258,4.73,18.146,18.146,0,0,0-2.206,4.2,5.128,5.128,0,0,0,1.052,4.528,16.209,16.209,0,0,0,4.988,3.846c2.068,1.179,4.237,2.374,5.542,4.276.158.23.554,0,.4-.229-2.27-3.31-6.839-4.414-9.7-7.2a5.343,5.343,0,0,1-1.9-4.751,14.011,14.011,0,0,1,2.148-4.3,8.979,8.979,0,0,0,1.425-4.584,13.342,13.342,0,0,0-1.059-4.94,35.175,35.175,0,0,0-6.134-9.957,41.494,41.494,0,0,0-10.707-8.816.215.215,0,1,0-.211.375Z" transform="translate(-576.82 -428.906)" fill="#fff"/>
    <path id="Path_902" data-name="Path 902" d="M887.214,631.563a5.338,5.338,0,0,0,2.951-6.778c-.1-.254-.554-.126-.452.128a4.946,4.946,0,0,1-2.759,6.3C886.685,631.342,886.947,631.691,887.214,631.563Z" transform="translate(-598.05 -444.32)" fill="#fff"/>
    <path id="Path_903" data-name="Path 903" d="M880.554,666.083a12.2,12.2,0,0,1-7.112-4.763c-.159-.23-.555,0-.4.229a12.7,12.7,0,0,0,7.412,4.943.211.211,0,1,0,.1-.409Z" transform="translate(-589.994 -467.426)" fill="#fff"/>
    <path id="Path_904" data-name="Path 904" d="M863.911,616.144a3.97,3.97,0,0,1-3.339.631.211.211,0,1,0-.1.41,4.452,4.452,0,0,0,3.7-.691.2.2,0,0,0,.068-.29.258.258,0,0,0-.328-.06Z" transform="translate(-582.592 -438.927)" fill="#fff"/>
    <path id="Path_905" data-name="Path 905" d="M790.8,658.323c.182.052.363.1.546.16a51.021,51.021,0,0,1,7.078,2.647c.177.079.356.161.53.244a49.352,49.352,0,0,1,14.326,10.176,43.5,43.5,0,0,1,4.347,5.251c1.79,2.548,3.5,5.437,6.064,7.261a8.375,8.375,0,0,0,.833.534l16.945-4c.033-.026.068-.049.1-.075l.685-.133c-.059-.1-.123-.2-.183-.3-.034-.058-.072-.115-.106-.172-.024-.038-.048-.076-.067-.112-.008-.013-.016-.025-.023-.035-.019-.036-.041-.067-.059-.1q-.533-.855-1.082-1.707s0,0-.006-.006a63.859,63.859,0,0,0-9.879-12.057c-.116-.108-.232-.219-.356-.325a44.952,44.952,0,0,0-5.65-4.424q-1.66-1.093-3.44-2.034a36.784,36.784,0,0,0-9.878-3.491c-6.937-1.394-14.3-.815-20.273,2.449C791.1,658.153,790.95,658.236,790.8,658.323Z" transform="translate(-542.116 -463.437)" fill="#f2f2f2"/>
    <path id="Path_906" data-name="Path 906" d="M790.644,663.819a46.859,46.859,0,0,1,25.28,5.62,17.891,17.891,0,0,1,4.376,3.245,8.742,8.742,0,0,1,2.224,4.444,17.19,17.19,0,0,0,1.1,4.521,6.217,6.217,0,0,0,3.931,3.057,18.8,18.8,0,0,0,6.608.422c2.456-.157,5-.354,7.344.472a.213.213,0,1,0,.16-.394c-4.072-1.437-8.474.107-12.664-.6a6.581,6.581,0,0,1-4.758-2.786,13.387,13.387,0,0,1-1.218-4.571,9.226,9.226,0,0,0-1.991-4.417,16.311,16.311,0,0,0-4.218-3.382,43.928,43.928,0,0,0-11.7-4.693,48.646,48.646,0,0,0-14.567-1.354c-.3.018-.215.429.087.411Z" transform="translate(-541.866 -468.752)" fill="#fff"/>
    <path id="Path_907" data-name="Path 907" d="M842.266,663.9a5.246,5.246,0,0,0-2.271-6.979c-.255-.148-.528.194-.273.342a4.857,4.857,0,0,1,2.1,6.5C841.693,664.009,842.14,664.148,842.266,663.9Z" transform="translate(-570.549 -464.687)" fill="#fff"/>
    <path id="Path_908" data-name="Path 908" d="M854.4,698.6a13.788,13.788,0,0,1-8.93-.026.213.213,0,1,0-.16.394,14.342,14.342,0,0,0,9.293.011c.285-.1.081-.476-.2-.378Z" transform="translate(-573.776 -491.005)" fill="#fff"/>
    <path id="Path_909" data-name="Path 909" d="M811.258,665.275a3.33,3.33,0,0,1-2.235,2.277c-.286.095-.082.472.2.378a3.734,3.734,0,0,0,2.479-2.514.21.21,0,0,0-.143-.267.248.248,0,0,0-.3.126Z" transform="translate(-552.65 -469.896)" fill="#fff"/>
    <ellipse id="Ellipse_1" data-name="Ellipse 1" cx="3.987" cy="3.516" rx="3.987" ry="3.516" transform="translate(215.133 211.343)" fill="#fd6584"/>
    <ellipse id="Ellipse_2" data-name="Ellipse 2" cx="3.987" cy="3.516" rx="3.987" ry="3.516" transform="translate(229.254 151.457)" fill="#e6e6e6"/>
    <ellipse id="Ellipse_3" data-name="Ellipse 3" cx="3.987" cy="3.516" rx="3.987" ry="3.516" transform="translate(155.072 53.929)" fill="#e6e6e6"/>
    <path id="Path_910" data-name="Path 910" d="M376.155,589.157c0,.9.033,1.79.1,2.678.075,1.061.2,2.114.38,3.16a36.031,36.031,0,0,0,3.349,10.213l.251.486.125.243c.042.081.088.162.129.24.058.107.113.21.171.313.071.129.142.258.217.387.008.015.017.033.029.052.063.11.121.217.188.328a.629.629,0,0,0,.042.07c.071.125.146.254.221.379s.163.269.246.4c.2.328.409.652.622.976.063.1.125.192.192.287s.117.177.18.265c.042.059.084.122.125.18.067.1.134.2.2.295.155.217.313.435.468.652h0c.071.1.146.2.221.294v0c.221.295.451.589.681.88h0a0,0,0,0,1,0,0c.184.236.376.464.564.692v0c.125.144.246.291.372.435.1.118.2.239.309.357.021.026.046.048.067.073v0c.029.033.058.063.088.1q.664.751,1.37,1.47l.075.077c.025.026.054.052.079.081.042.04.079.081.121.122s.079.081.121.122a44.1,44.1,0,0,0,8.281,6.442c.405.247.819.486,1.232.718.1.059.209.118.313.173l.092.055c.058.03.113.059.171.092s.109.059.167.088c.221.122.447.239.672.357.054.029.113.059.171.089s.113.055.171.085c0,0,0,0,0,0h0v0h0q.42.216.852.42c.155.073.313.151.472.221.359.173.723.339,1.086.5.13.055.263.11.393.169.109.044.217.092.326.136.033.015.063.026.092.041l.271.11c.1.04.2.081.3.122.113.044.221.088.334.129.418.166.839.324,1.261.475a48.357,48.357,0,0,0,4.627,1.414l.221.055q1.009.249,2.03.453,1.785.365,3.6.6h.008l.434.055c.013,0,.025,0,.042,0,0,0,0,0,0,0l.48.055a.118.118,0,0,0,.033,0c.15.018.3.033.455.048l.489.044.376.033a.092.092,0,0,0,.033,0c.113.007.226.018.338.026h.017l.292.022c1.165.081,2.335.118,3.521.118,1.282,0,2.556-.044,3.813-.14h.013l.806-.066c.071-.008.138-.011.209-.018.013,0,.029,0,.042,0s.042,0,.067-.007a.123.123,0,0,0,.033,0c.092-.007.184-.018.28-.026l.313-.033c.1-.011.209-.026.313-.037.025,0,.046,0,.071-.007.075-.007.15-.018.225-.029l.109-.011c.075-.011.146-.018.221-.029h0a49.244,49.244,0,0,0,6.766-1.344c.117-.033.234-.063.351-.1,0,0,.008,0,.013,0,.033-.011.071-.019.1-.029.313-.089.622-.18.931-.276.426-.125.848-.262,1.27-.4.113-.04.225-.077.338-.118.23-.077.455-.158.681-.239.384-.136.768-.28,1.148-.427.355-.14.706-.28,1.057-.427.008,0,.021,0,.029-.011.079-.033.159-.066.234-.1h0a46.639,46.639,0,0,0,5.55-2.8q.852-.5,1.679-1.039c.443-.291.877-.586,1.311-.888a43.339,43.339,0,0,0,5.926-4.995v0c.129-.125.251-.254.376-.383.021-.018.038-.037.054-.052.079-.085.155-.166.234-.247v0c.1-.107.209-.217.309-.328l.067-.07v0c.083-.088.163-.177.246-.269.042-.044.079-.089.121-.133v0c.246-.273.484-.545.722-.825.063-.074.125-.151.192-.228.3-.357.593-.722.877-1.087v0c.109-.136.213-.276.322-.412l.313-.42c.1-.147.213-.291.317-.438l.013-.022c.1-.14.209-.287.309-.431.079-.118.159-.232.238-.346.05-.078.1-.155.155-.236a.844.844,0,0,0,.054-.077l.351-.541c.138-.21.271-.424.405-.637.05-.088.1-.177.159-.265a1.022,1.022,0,0,0,.054-.088c.063-.1.125-.21.184-.317s.125-.21.188-.317.121-.21.18-.317c.046-.081.088-.162.134-.243a.077.077,0,0,1,.013-.019c.021-.041.042-.077.058-.114a.081.081,0,0,0,.012-.018c.046-.081.088-.166.134-.247.059-.107.113-.217.171-.324.038-.074.079-.151.117-.228.054-.107.113-.214.163-.324s.113-.221.167-.335a.8.8,0,0,0,.042-.085c.029-.052.05-.1.075-.155.067-.136.134-.276.2-.412.075-.155.146-.313.213-.468s.129-.291.192-.438l.025-.051a36.3,36.3,0,0,0,2.205-6.973v0a35.8,35.8,0,0,0,.6-4.1c0-.077.013-.151.017-.225.075-.932.109-1.867.109-2.807,0-.416-.008-.828-.021-1.241a36.833,36.833,0,0,0-9.931-23.647c-.134-.147-.267-.294-.405-.442s-.28-.291-.418-.435c-9.284-9.589-23.183-14.717-37.444-13.813s-27.186,7.73-34.821,18.392c-.2.287-.409.578-.606.869s-.393.589-.585.888A35.945,35.945,0,0,0,376.155,589.157Z" transform="translate(-300.638 -396.837)" fill="#f2f2f2"/>
    <path id="Path_911" data-name="Path 911" d="M478.557,582.59a119.469,119.469,0,0,0,22.614,2.878,32.112,32.112,0,0,0,3.465-.021c2.535-.188,4.706-.891,7.123-1.274,1.162-.184,2.457-.319,3.627-.518q-.406-.444-.826-.877c-2.523.188-5.086.8-7.64,1.089a27.572,27.572,0,0,1-12.5-1.4c-1.6-.65-2.82-1.462-4.411-2.115a2.265,2.265,0,0,0-.692-.187,2.665,2.665,0,0,0-1.306.3,19.365,19.365,0,0,1-10.142,1.623C477.607,582.278,478.116,582.489,478.557,582.59Z" transform="translate(-359.834 -416.225)" fill="#fff"/>
    <path id="Path_912" data-name="Path 912" d="M441.36,597.628l-.1-.014a2.678,2.678,0,0,0,.389-.258Z" transform="translate(-338.555 -427.081)" fill="#fff"/>
    <path id="Path_913" data-name="Path 913" d="M389.937,600.158q2.254.159,4.531.237a32.366,32.366,0,0,0,3.465-.021c2.535-.189,4.706-.891,7.123-1.275,2.216-.351,4.909-.52,6.316-1.3-3.636-.555-7.4.575-11.154,1a30.126,30.126,0,0,1-9.089-.4Q390.506,599.263,389.937,600.158Z" transform="translate(-308.664 -427.266)" fill="#fff"/>
    <path id="Path_914" data-name="Path 914" d="M433.455,727.529c.359.173.722.339,1.086.5.129.055.263.11.393.169.109.044.217.092.326.136.033.015.063.026.092.041l.271.111c.1.041.2.081.3.122.113.044.221.088.334.129.418.166.839.324,1.261.475a48.353,48.353,0,0,0,4.627,1.414l.221.055q1.009.249,2.03.453,1.785.365,3.6.6h.008l.434.055c.012,0,.025,0,.042,0,0,0,0,0,0,0l.48.055a.114.114,0,0,0,.033,0c.15.018.3.033.455.048l.489.044.376.033a.088.088,0,0,0,.033,0c.113.007.226.018.338.026h.017l.292.022c1.165.081,2.334.118,3.521.118,1.282,0,2.556-.044,3.813-.14h.013l.806-.066c.071-.007.138-.011.209-.018.013,0,.029,0,.042,0s.042,0,.067-.007a.118.118,0,0,0,.033,0c.092-.007.184-.018.28-.026l.313-.033c.1-.011.209-.026.313-.037.025,0,.046,0,.071-.007.075-.007.15-.018.225-.029l.109-.011c.075-.011.146-.018.221-.029h0a49.254,49.254,0,0,0,6.765-1.344c.117-.033.234-.063.351-.1a15.284,15.284,0,0,0-9.2-10.262,3.416,3.416,0,0,0,1.14-1.79,3.092,3.092,0,0,0-.535-2.586,3.787,3.787,0,0,0-2.364-1.429l-6.189-1.142a3.863,3.863,0,0,0-4.51,2.652,3.186,3.186,0,0,0-.084.818C440.454,720.048,436.165,723.676,433.455,727.529Z" transform="translate(-334.008 -500.14)" fill="#39a300"/>
    <ellipse id="Ellipse_4" data-name="Ellipse 4" cx="12.894" cy="11.372" rx="12.894" ry="11.372" transform="translate(104.827 188.038)" fill="#ffb8b8"/>
    <path id="Path_915" data-name="Path 915" d="M448.894,659.218a15.915,15.915,0,0,1-3.717-3.613,12.366,12.366,0,0,1-2.391-10.9,3.989,3.989,0,0,1,1.11-2.006,2.228,2.228,0,0,1,2.34-.407,3.334,3.334,0,0,1,.172-2.961,6.858,6.858,0,0,1,2.2-2.316,13.8,13.8,0,0,1,12.647-1.321c.805.329-.517-2.213.326-1.968a3.864,3.864,0,0,0,2.594-.04c.793-.352,3.421,1.739,3.117,1a3.534,3.534,0,0,1,2.26,2.672,3.253,3.253,0,0,1-1.353,3.112,22.273,22.273,0,0,1-2.225,1.2,5.239,5.239,0,0,0-1.954,7.271,9.082,9.082,0,0,0-2.491-.955,3.153,3.153,0,0,0-2.549.541,2.627,2.627,0,0,0-.78,2.142c.029.772.237,1.532.26,2.3.069,2.265,1.444,6.571-.547,7.775C456.347,661.7,450.771,660.349,448.894,659.218Z" transform="translate(-339.21 -450.003)" fill="#2f2e41"/>
    <path id="Path_916" data-name="Path 916" d="M532.907,171.053H195.753a.384.384,0,1,1,0-.763H532.906a.384.384,0,1,1,0,.763Z" transform="translate(-195.33 -157.315)" fill="#cacaca"/>
    <ellipse id="Ellipse_5" data-name="Ellipse 5" cx="4.656" cy="4.198" rx="4.656" ry="4.198" transform="translate(5.294 0)" fill="#3f3d56"/>
    <ellipse id="Ellipse_6" data-name="Ellipse 6" cx="4.656" cy="4.198" rx="4.656" ry="4.198" transform="translate(21.378 0)" fill="#3f3d56"/>
    <ellipse id="Ellipse_7" data-name="Ellipse 7" cx="4.656" cy="4.198" rx="4.656" ry="4.198" transform="translate(37.463 0)" fill="#3f3d56"/>
    <path id="Path_917" data-name="Path 917" d="M963.438,139.415H952.01a.769.769,0,1,1,0-1.527h11.428a.769.769,0,1,1,0,1.527Z" transform="translate(-635.498 -136.847)" fill="#3f3d56"/>
    <path id="Path_918" data-name="Path 918" d="M963.438,147.186H952.01a.769.769,0,1,1,0-1.527h11.428a.769.769,0,1,1,0,1.527Z" transform="translate(-635.498 -141.756)" fill="#3f3d56"/>
    <path id="Path_919" data-name="Path 919" d="M963.438,154.957H952.01a.769.769,0,1,1,0-1.527h11.428a.769.769,0,1,1,0,1.527Z" transform="translate(-635.498 -146.665)" fill="#3f3d56"/>
    <path id="Path_920" data-name="Path 920" d="M490.505,464.865a2.3,2.3,0,0,1-.791-.141,1.778,1.778,0,0,1-1.255-1.656v-1.8a1.53,1.53,0,0,0-1.615-1.424,1.926,1.926,0,0,1-2.032-1.792V433.391a1.926,1.926,0,0,1,2.032-1.793h92.64a1.926,1.926,0,0,1,2.032,1.793v24.661a1.926,1.926,0,0,1-2.032,1.793H497.691a1.719,1.719,0,0,0-1.142.417l-4.62,4.074A2.144,2.144,0,0,1,490.505,464.865Z" transform="translate(-363.918 -322.376)" fill="#fff"/>
    <path id="Path_921" data-name="Path 921" d="M489.923,464.6a2.757,2.757,0,0,1-.951-.169,2.143,2.143,0,0,1-1.512-2v-1.8a1.134,1.134,0,0,0-1.2-1.056,2.322,2.322,0,0,1-2.45-2.161V432.759a2.322,2.322,0,0,1,2.45-2.161H578.9a2.322,2.322,0,0,1,2.45,2.161V457.42a2.322,2.322,0,0,1-2.45,2.161H497.109a1.274,1.274,0,0,0-.847.309l-4.62,4.074A2.591,2.591,0,0,1,489.923,464.6Zm-3.66-33.267a1.53,1.53,0,0,0-1.615,1.424V457.42a1.53,1.53,0,0,0,1.615,1.424,1.926,1.926,0,0,1,2.032,1.793v1.8a1.435,1.435,0,0,0,1,1.315,1.776,1.776,0,0,0,1.76-.309l4.62-4.074a2.164,2.164,0,0,1,1.437-.525H578.9a1.53,1.53,0,0,0,1.615-1.424V432.759a1.53,1.53,0,0,0-1.615-1.424Z" transform="translate(-363.335 -321.745)" fill="#3f3d56"/>
    <path id="Path_922" data-name="Path 922" d="M586.177,458.637H511.056a.962.962,0,1,1,0-1.909h75.121a.962.962,0,1,1,0,1.908Z" transform="translate(-378.571 -338.25)" fill="#39a300"/>
    <path id="Path_923" data-name="Path 923" d="M586.04,469.644H511.056a.962.962,0,1,1,0-1.909H586.04a.962.962,0,1,1,0,1.909Z" transform="translate(-378.571 -345.203)" fill="#e6e6e6"/>
    <path id="Path_924" data-name="Path 924" d="M585.965,480.651H511.056a.962.962,0,1,1,0-1.908h74.909a.962.962,0,1,1,0,1.908Z" transform="translate(-378.571 -352.156)" fill="#e6e6e6"/>
    <path id="Path_925" data-name="Path 925" d="M850.23,353.157c0,.895-.033,1.79-.1,2.678-.075,1.061-.2,2.114-.38,3.16a36.033,36.033,0,0,1-3.349,10.214l-.251.486-.125.243c-.042.081-.088.162-.13.24-.058.107-.113.21-.171.313-.071.129-.142.258-.217.387-.008.015-.017.033-.029.052-.063.111-.121.217-.188.328a.617.617,0,0,1-.042.07c-.071.125-.146.254-.221.379s-.163.269-.246.4c-.2.328-.409.652-.622.976-.063.1-.125.191-.192.287s-.117.177-.18.265c-.042.059-.083.122-.125.18-.067.1-.134.2-.2.295-.155.217-.313.435-.468.652h0c-.071.1-.146.2-.221.295v0c-.221.295-.451.589-.681.88h0a0,0,0,0,0,0,0c-.184.236-.376.464-.564.692v0c-.125.144-.246.291-.372.435-.1.118-.2.239-.309.357-.021.026-.046.048-.067.074v0c-.029.033-.059.063-.088.1q-.664.752-1.37,1.47l-.075.077c-.025.026-.054.052-.079.081-.042.041-.079.081-.121.122s-.079.081-.121.122a44.111,44.111,0,0,1-8.281,6.442c-.405.247-.819.486-1.232.718-.1.059-.209.118-.313.173l-.092.055c-.058.03-.113.059-.171.092s-.109.059-.167.088c-.221.122-.447.239-.672.357-.054.029-.113.059-.171.088s-.113.055-.171.085c0,0,0,0,0,0h0v0h0q-.42.216-.852.42c-.154.074-.313.151-.472.221-.359.173-.722.339-1.086.5-.129.055-.263.11-.393.169-.109.044-.217.092-.326.136-.033.015-.063.026-.092.041l-.271.111c-.1.04-.2.081-.3.122-.113.044-.221.088-.334.129-.418.166-.839.324-1.261.475a48.364,48.364,0,0,1-4.627,1.414l-.221.055q-1.009.249-2.03.453-1.785.365-3.6.6h-.008l-.434.055c-.013,0-.025,0-.042,0,0,0,0,0,0,0l-.48.055a.117.117,0,0,1-.033,0c-.15.018-.3.033-.455.048l-.489.044-.376.033a.09.09,0,0,1-.033,0c-.113.007-.225.018-.338.026h-.017l-.292.022c-1.165.081-2.335.118-3.521.118-1.282,0-2.556-.044-3.813-.14h-.013l-.806-.066c-.071-.007-.138-.011-.209-.018-.013,0-.029,0-.042,0s-.042,0-.067-.007a.117.117,0,0,1-.034,0c-.092-.007-.184-.018-.28-.026l-.313-.033c-.1-.011-.209-.026-.313-.037-.025,0-.046,0-.071-.007-.075-.007-.15-.018-.226-.029l-.109-.011c-.075-.011-.146-.018-.221-.029h0a49.232,49.232,0,0,1-6.766-1.344c-.117-.033-.234-.063-.351-.1,0,0-.008,0-.013,0-.033-.011-.071-.018-.1-.029-.313-.088-.622-.18-.931-.276-.426-.125-.848-.262-1.27-.4-.113-.04-.225-.077-.338-.118-.23-.077-.455-.158-.681-.239-.384-.136-.768-.28-1.148-.427-.355-.14-.706-.28-1.057-.427-.008,0-.021,0-.029-.011-.079-.033-.159-.066-.234-.1h0a46.654,46.654,0,0,1-5.55-2.8q-.852-.5-1.679-1.039c-.443-.291-.877-.586-1.311-.888a43.342,43.342,0,0,1-5.926-4.995v0c-.129-.125-.251-.254-.376-.383-.021-.018-.038-.037-.054-.052-.079-.085-.154-.166-.234-.247v0c-.1-.107-.209-.217-.309-.328l-.067-.07v0c-.083-.088-.163-.177-.246-.269-.042-.044-.079-.088-.121-.133v0c-.246-.273-.484-.545-.723-.825-.063-.074-.125-.151-.192-.228-.3-.357-.593-.722-.877-1.087v0c-.109-.136-.213-.276-.322-.413l-.313-.42c-.1-.147-.213-.291-.317-.438l-.013-.022c-.1-.14-.209-.287-.309-.431-.079-.118-.159-.232-.238-.346-.05-.077-.1-.155-.154-.236a.853.853,0,0,1-.054-.077l-.351-.541c-.138-.21-.271-.424-.405-.637-.05-.088-.1-.177-.159-.265a1,1,0,0,1-.054-.088c-.063-.1-.125-.21-.184-.317s-.125-.21-.188-.317-.121-.21-.18-.317c-.046-.081-.088-.162-.134-.243a.079.079,0,0,0-.013-.018c-.021-.04-.042-.077-.058-.114a.077.077,0,0,1-.013-.018c-.046-.081-.088-.166-.134-.247-.058-.107-.113-.217-.171-.324-.038-.074-.079-.151-.117-.228-.054-.107-.113-.214-.163-.324s-.113-.221-.167-.335a.8.8,0,0,1-.042-.085c-.029-.052-.05-.1-.075-.155-.067-.136-.134-.276-.2-.413-.075-.155-.146-.313-.213-.468s-.129-.291-.192-.438l-.025-.052a36.3,36.3,0,0,1-2.205-6.972v0a35.793,35.793,0,0,1-.6-4.1c0-.077-.013-.151-.017-.225-.075-.932-.109-1.867-.109-2.807,0-.416.008-.829.021-1.241a36.832,36.832,0,0,1,9.931-23.647c.134-.147.267-.295.405-.442s.28-.291.418-.435c9.284-9.59,23.183-14.717,37.444-13.814s27.186,7.73,34.821,18.392c.2.287.409.578.605.869s.393.589.585.888a35.945,35.945,0,0,1,5.755,19.429Z" transform="translate(-524.323 -247.762)" fill="#f2f2f2"/>
    <path id="Path_926" data-name="Path 926" d="M820.9,346.59a119.458,119.458,0,0,1-22.614,2.879,32.1,32.1,0,0,1-3.465-.021c-2.535-.188-4.706-.891-7.124-1.275-1.162-.184-2.457-.319-3.627-.517q.406-.444.826-.877c2.523.188,5.086.8,7.64,1.089a27.569,27.569,0,0,0,12.5-1.4c1.6-.65,2.82-1.462,4.411-2.115a2.259,2.259,0,0,1,.692-.187,2.662,2.662,0,0,1,1.306.3,19.365,19.365,0,0,0,10.142,1.623C821.849,346.277,821.34,346.488,820.9,346.59Z" transform="translate(-538.198 -267.15)" fill="#fff"/>
    <path id="Path_927" data-name="Path 927" d="M909.967,361.628l.1-.014a2.674,2.674,0,0,1-.389-.258Z" transform="translate(-611.349 -278.006)" fill="#fff"/>
    <path id="Path_928" data-name="Path 928" d="M932.042,364.158q-2.254.159-4.531.236a32.349,32.349,0,0,1-3.465-.021c-2.535-.189-4.706-.891-7.124-1.275-2.216-.351-4.909-.521-6.316-1.3,3.636-.555,7.4.575,11.154,1a30.127,30.127,0,0,0,9.089-.4Q931.473,363.263,932.042,364.158Z" transform="translate(-611.891 -278.191)" fill="#fff"/>
    <ellipse id="Ellipse_8" data-name="Ellipse 8" cx="13.514" cy="12.184" rx="13.514" ry="12.184" transform="translate(262.326 98.39)" fill="#ffb6b6"/>
    <path id="Path_929" data-name="Path 929" d="M870.025,491.529c-.359.173-.722.339-1.086.5-.13.055-.263.11-.393.169-.109.044-.217.092-.326.136-.034.015-.063.026-.092.04l-.271.111c-.1.04-.2.081-.3.122-.113.044-.221.088-.334.129-.418.166-.839.324-1.261.475a48.346,48.346,0,0,1-4.627,1.414l-.221.055q-1.009.249-2.03.453-1.785.365-3.6.6h-.008l-.434.055c-.013,0-.025,0-.042,0,0,0,0,0,0,0l-.48.055a.12.12,0,0,1-.033,0c-.15.018-.3.033-.455.048l-.489.044-.376.033a.089.089,0,0,1-.033,0c-.113.007-.226.018-.338.026h-.017l-.292.022c-1.165.081-2.334.118-3.521.118-1.282,0-2.556-.044-3.813-.14h-.013l-.806-.066c-.071-.007-.138-.011-.209-.018-.013,0-.029,0-.042,0s-.042,0-.067-.007a.119.119,0,0,1-.034,0c-.092-.007-.184-.018-.28-.026l-.313-.033c-.1-.011-.209-.026-.313-.037-.025,0-.046,0-.071-.007-.075-.007-.15-.018-.226-.029l-.109-.011c-.075-.011-.146-.018-.221-.029h0a49.254,49.254,0,0,1-6.765-1.344c-.117-.033-.234-.063-.351-.1a15.284,15.284,0,0,1,9.2-10.262,3.417,3.417,0,0,1-1.14-1.79,3.092,3.092,0,0,1,.535-2.586,3.786,3.786,0,0,1,2.364-1.429l6.189-1.142a3.863,3.863,0,0,1,4.51,2.652,3.179,3.179,0,0,1,.083.818C863.026,484.048,867.315,487.676,870.025,491.529Z" transform="translate(-568.048 -351.065)" fill="#299a0b"/>
    <path id="Path_930" data-name="Path 930" d="M869.081,399.076c-2.3-2.363-3.389-5.5-5.225-8.18s-5.032-5.084-8.408-4.46a7.216,7.216,0,0,0-5.036,4.261,18.745,18.745,0,0,0-1.24,6.427c.056-4.483-3.292-8.829-7.906-10.259a12.546,12.546,0,0,0-13.032,3.767,7.762,7.762,0,0,0-9.355-.173,6.33,6.33,0,0,0-1.26,8.54,7.668,7.668,0,0,0,9.066,2.132l1.071.869a3.968,3.968,0,0,0,2.532,4.758c1.594.568,3.844.473,4.441,1.949.417,1.031-.362,2.131-1.191,2.923s-1.813,1.61-1.912,2.706c-.15,1.654,1.788,2.813,3.549,3.161a11.759,11.759,0,0,0,11.409-4.2q.071-.1.154-.192a13.24,13.24,0,0,0,3.3-11.062c-.138-.764,0-1.333.6-1.514,2.582-.782,9.816.859,12.005,2.343s3.943,3.447,6.051,5.027,4.8,2.8,7.474,2.368a8.3,8.3,0,0,0,5.2-3.374,19.051,19.051,0,0,0,2.566-5.505A13.241,13.241,0,0,1,869.081,399.076Z" transform="translate(-557.08 -293.786)" fill="#2f2e41"/>
    <path id="Path_931" data-name="Path 931" d="M278.155,286.157c0,.9.033,1.79.1,2.678.075,1.061.2,2.114.38,3.16a36.036,36.036,0,0,0,3.349,10.214l.251.486.125.243c.042.081.088.162.129.239.059.107.113.21.171.313.071.129.142.258.217.387.008.015.017.033.029.052.063.111.121.217.188.328a.617.617,0,0,0,.042.07c.071.125.146.254.221.379s.163.269.246.4c.2.328.409.652.622.976.063.1.125.192.192.287s.117.177.18.265c.042.059.083.122.125.18.067.1.134.2.2.295.155.217.313.435.468.652h0c.071.1.146.2.221.295v0c.221.295.451.589.681.88h0a0,0,0,0,1,0,0c.184.236.376.464.564.692v0c.125.144.246.291.372.435.1.118.2.239.309.357.021.026.046.048.067.074v0c.029.033.058.063.088.1q.664.751,1.37,1.47l.075.077c.025.026.054.052.079.081.042.04.079.081.121.122s.079.081.121.122a44.106,44.106,0,0,0,8.281,6.442c.405.247.818.486,1.232.718.1.059.209.118.313.173l.092.055c.059.029.113.059.171.092s.109.059.167.088c.221.122.447.239.672.357.054.029.113.059.171.088s.113.055.171.085c0,0,0,0,0,0h0v0h0q.42.215.852.42c.155.074.313.151.472.221.359.173.722.339,1.086.5.129.055.263.111.393.169.109.044.217.092.326.136.033.015.063.026.092.04l.271.111c.1.04.2.081.3.122.113.044.221.088.334.129.418.166.839.324,1.261.475a48.343,48.343,0,0,0,4.627,1.414l.221.055q1.009.249,2.03.453,1.785.365,3.6.6h.008l.434.055c.013,0,.025,0,.042,0,0,0,0,0,0,0l.48.055a.116.116,0,0,0,.033,0c.15.018.3.033.455.048l.489.044.376.033a.093.093,0,0,0,.033,0c.113.007.225.018.338.026h.017l.292.022c1.165.081,2.335.118,3.521.118,1.282,0,2.556-.044,3.813-.14h.013l.806-.066c.071-.007.138-.011.209-.018.013,0,.029,0,.042,0s.042,0,.067-.007a.119.119,0,0,0,.033,0c.092-.007.184-.018.28-.026l.313-.033c.1-.011.209-.026.313-.037.025,0,.046,0,.071-.007.075-.007.15-.018.226-.029l.109-.011c.075-.011.146-.018.221-.029h0a49.237,49.237,0,0,0,6.766-1.344c.117-.033.234-.063.351-.1,0,0,.008,0,.012,0,.033-.011.071-.018.1-.03.313-.088.622-.18.931-.276.426-.125.848-.262,1.27-.4.113-.041.226-.077.338-.118.23-.077.455-.158.681-.239.384-.136.768-.28,1.148-.427.355-.14.706-.28,1.057-.427.008,0,.021,0,.029-.011.079-.033.159-.066.234-.1h0a46.642,46.642,0,0,0,5.55-2.8q.852-.5,1.679-1.039c.443-.291.877-.586,1.311-.888a43.339,43.339,0,0,0,5.926-4.995v0c.129-.125.251-.254.376-.383.021-.018.038-.037.054-.052.079-.085.155-.166.234-.247v0c.1-.107.209-.217.309-.328l.067-.07v0c.084-.088.163-.177.246-.269.042-.044.079-.088.121-.133v0c.246-.273.484-.545.723-.825.063-.074.125-.151.192-.228.3-.357.593-.722.877-1.087v0c.109-.136.213-.276.322-.413l.313-.42c.1-.147.213-.291.317-.438l.013-.022c.1-.14.209-.287.309-.431.079-.118.159-.232.238-.346.05-.077.1-.155.155-.236a.86.86,0,0,0,.054-.077l.351-.542c.138-.21.271-.424.405-.637.05-.088.1-.177.159-.265a1.022,1.022,0,0,0,.054-.088c.063-.1.125-.21.184-.317s.125-.21.188-.317.121-.21.18-.317c.046-.081.088-.162.134-.243a.078.078,0,0,1,.012-.018c.021-.04.042-.077.059-.114a.077.077,0,0,0,.013-.018c.046-.081.088-.166.134-.247.058-.107.113-.217.171-.324.038-.074.079-.151.117-.228.054-.107.113-.214.163-.324s.113-.221.167-.335a.8.8,0,0,0,.042-.085c.029-.052.05-.1.075-.155.067-.136.134-.276.2-.413.075-.155.146-.313.213-.468s.129-.291.192-.438l.025-.052a36.3,36.3,0,0,0,2.205-6.972v0a35.812,35.812,0,0,0,.6-4.1c0-.077.013-.151.017-.225.075-.932.109-1.867.109-2.807,0-.416-.008-.829-.021-1.241a36.833,36.833,0,0,0-9.931-23.647c-.134-.147-.267-.295-.405-.442s-.28-.291-.418-.435c-9.284-9.59-23.183-14.717-37.444-13.813s-27.186,7.73-34.821,18.392c-.2.287-.409.578-.606.869s-.393.589-.585.888A35.945,35.945,0,0,0,278.155,286.157Z" transform="translate(-243.565 -205.44)" fill="#f2f2f2"/>
    <path id="Path_932" data-name="Path 932" d="M380.557,279.59a119.462,119.462,0,0,0,22.614,2.879,32.1,32.1,0,0,0,3.465-.021c2.535-.188,4.706-.891,7.123-1.275,1.162-.184,2.457-.319,3.627-.518q-.406-.444-.826-.877c-2.523.188-5.086.8-7.64,1.09a27.571,27.571,0,0,1-12.5-1.4c-1.6-.65-2.82-1.462-4.411-2.115a2.26,2.26,0,0,0-.692-.187,2.663,2.663,0,0,0-1.306.3,19.365,19.365,0,0,1-10.142,1.623C379.607,279.277,380.116,279.488,380.557,279.59Z" transform="translate(-302.761 -224.828)" fill="#fff"/>
    <path id="Path_933" data-name="Path 933" d="M343.36,294.628l-.1-.014a2.684,2.684,0,0,0,.389-.258Z" transform="translate(-281.482 -235.684)" fill="#fff"/>
    <path id="Path_934" data-name="Path 934" d="M291.937,297.158q2.253.159,4.531.237a32.357,32.357,0,0,0,3.465-.021c2.535-.189,4.706-.891,7.123-1.275,2.216-.351,4.909-.52,6.316-1.3-3.636-.555-7.4.575-11.154,1a30.123,30.123,0,0,1-9.089-.4Q292.506,296.263,291.937,297.158Z" transform="translate(-251.591 -235.869)" fill="#fff"/>
    <path id="Path_935" data-name="Path 935" d="M335.455,424.529c.359.173.723.339,1.086.5.129.055.263.111.393.169.109.044.217.092.326.136.033.015.063.026.092.04l.271.11c.1.041.2.081.3.122.113.044.221.088.334.129.418.166.839.324,1.261.475a48.336,48.336,0,0,0,4.627,1.414l.221.055q1.009.249,2.03.453,1.785.365,3.6.6H350l.434.055c.013,0,.025,0,.042,0,0,0,0,0,0,0l.48.055a.116.116,0,0,0,.033,0c.15.018.3.033.455.048l.489.044.376.033a.091.091,0,0,0,.033,0c.113.007.226.018.338.026h.017l.292.022c1.165.081,2.335.118,3.521.118,1.282,0,2.556-.044,3.813-.14h.013l.806-.066c.071-.007.138-.011.209-.018.012,0,.029,0,.042,0s.042,0,.067-.007a.116.116,0,0,0,.033,0c.092-.007.184-.018.28-.026l.313-.033c.1-.011.209-.026.313-.037.025,0,.046,0,.071-.007.075-.007.15-.018.226-.029l.109-.011c.075-.011.146-.018.221-.029h0a49.239,49.239,0,0,0,6.766-1.344c.117-.033.234-.063.351-.1a15.284,15.284,0,0,0-9.2-10.262,3.416,3.416,0,0,0,1.14-1.79,3.091,3.091,0,0,0-.535-2.586,3.786,3.786,0,0,0-2.364-1.429l-6.189-1.142a3.863,3.863,0,0,0-4.51,2.652,3.185,3.185,0,0,0-.083.818C342.454,417.048,338.165,420.676,335.455,424.529Z" transform="translate(-276.935 -308.743)" fill="#299a0b"/>
    <ellipse id="Ellipse_9" data-name="Ellipse 9" cx="15.065" cy="13.287" rx="15.065" ry="13.287" transform="translate(67.939 71.078)" fill="#9e616a"/>
    <path id="Path_936" data-name="Path 936" d="M364.647,348.047a13.334,13.334,0,0,1-10.873-2.562,17.689,17.689,0,0,1-5.845-8.792c-.777-2.429-1.145-5.124.081-7.4s4.526-3.818,7.072-2.667c-1.571-1.614-.786-4.283,1.048-5.663s4.353-1.776,6.752-1.993a27.682,27.682,0,0,1,10.39.646c3.313.995,6.323,3.169,7.359,6.117a5.762,5.762,0,0,0,6.3-1.254,4.11,4.11,0,0,1-2.635,4.574l5.076-1.451c.873,1.63-.657,3.646-2.613,4.168a9.562,9.562,0,0,1-5.923-.8,24.847,24.847,0,0,0-5.671-2c-2.016-.294-4.384.277-5.317,1.881a12.538,12.538,0,0,0-.8,2.734,2.543,2.543,0,0,1-2.069,1.928c-.674.047-1.334-.27-2.006-.2a2.058,2.058,0,0,0-1.693,1.459,4.952,4.952,0,0,0-.006,2.2l1.289,8.692Z" transform="translate(-283.784 -251.106)" fill="#2f2e41"/>
  </g>
</svg>
