<svg xmlns="http://www.w3.org/2000/svg" width="360" height="246.667" viewBox="0 0 360 246.667">
  <g id="_1634063478299" data-name="1634063478299" transform="translate(714.541 276.427) rotate(-90)">
    <path id="Path_968" data-name="Path 968" d="M70.488-714.268c-2.4.6-5.069,1.864-5.069,2.469,0,.252.888.6,1.986.756a19.088,19.088,0,0,1,9.51,5.189c2.456,2.721,2.613,4.333.47,4.585-1.359.151-2.717-1.008-7.107-5.895-1.515-1.713-1.62-1.713-6.323-1.864-4.389-.151-5.017,0-7.368,1.209-5.069,2.67-7.368,6.247-9.981,15.618a11.251,11.251,0,0,1-2.3,4.031c-3.449,3.678-3.553,4.585-1.359,9.018a30.643,30.643,0,0,1,2.09,6.3c.575,3.325,2.979,9.472,3.658,9.472.209,0,.627-.6.941-1.411,1.829-5.139,8.413-8.112,17.871-8.162,5.7-.05,7.316-.5,11.967-3.426,2.195-1.411,3.919-2.116,5.069-2.116,2.195,0,3.344-1.511,3.344-4.282,0-1.512-.627-3.073-2.613-6.3-2.508-4.081-3.344-7.053-1.986-7.053a9.456,9.456,0,0,1,2.77,2.267l2.195,2.217.575,6.449c1.045,11.487,1.2,14.208.836,16.727l-.366,2.519-1.2-.907c-2.09-1.612-6.062-2.267-9.092-1.562-8.57,1.965-16.2,13.7-16.2,24.889,0,1.864.209,3.325.47,3.325s.993-.806,1.62-1.763a15.011,15.011,0,0,1,4.18-3.678c3.031-1.965,14.632-7,17.349-7.507,1.672-.3,1.777.05.941,2.922-.47,1.612-1.045,2.066-4.86,3.98a62.168,62.168,0,0,0-7.943,4.837c-5.435,3.98-10.033,7.658-10.451,8.263a6.706,6.706,0,0,0,.575,3.124c.679,2.066,1.777,3.426,5.435,6.9a63.182,63.182,0,0,1,5.487,5.693c.575.957.941,2.973,1.15,6.953l.314,5.643-2.195-1.512c-5.7-3.98-17.3-3.224-25.971,1.663-2.561,1.461-7.211,5.29-6.793,5.643a36.891,36.891,0,0,0,4.808.353c4.964.151,5.226.2,16.147,5.391,5.33,2.469,8.727,5.189,7.577,6-1.359.856-4.546.554-8.2-.806-7.838-2.821-9.772-3.325-20.223-4.988-5.278-.857-5.487-.756-7.211,2.469-.784,1.461-1.2,3.628-1.515,8.313-.261,3.476-.627,7.1-.784,7.96a3.054,3.054,0,0,0-.1,1.663c.888,0,6.427-1.864,9.249-3.124,11.183-4.937,20.954-6.852,25.553-4.988,3.24,1.31,1.568,2.066-4.6,2.066-6.218,0-9.981,1.209-18.969,6.2a52.026,52.026,0,0,1-7.316,3.376c-2.613.857-2.717.957-2.665,2.62a20.288,20.288,0,0,0,1.933,5.592,15.91,15.91,0,0,1,1.933,5.643c0,1.814,0,1.814,1.724,1.511,2.195-.5,3.449-1.411,8.727-6.55C55.543-567.606,64.74-572.7,70.331-572.7c2.352,0,4.076,1.108,3.135,2.015a73.88,73.88,0,0,1-7.682,3.224,69.211,69.211,0,0,0-10.033,4.635c-2.979,1.864-7.629,6.449-11.548,11.386-2.038,2.57-2.3,3.124-2.3,5.542,0,4.283,1.829,7.2,7.734,12.394,9.249,8.011,11.078,10.127,12.176,13.855a5.259,5.259,0,0,1-2.4,5.592c-1.306.857-1.359.957-.523,1.411,1.15.655,4.128.2,9.406-1.411,3.762-1.159,4.755-1.26,9.772-1.058l5.591.3,1.515-1.864a37.008,37.008,0,0,0,3.031-4.635c1.359-2.519,1.515-3.224,1.515-7.809,0-4.887-.052-5.24-2.717-11.588-3.083-7.507-3.867-12.092-1.986-12.092.732,0,1.254.6,1.881,2.217a22.772,22.772,0,0,0,3.188,5.038l2.351,2.821.314,7.053A82.65,82.65,0,0,0,96.3-514.1c.888,2.821,1.933,6.449,2.3,8.061a14.855,14.855,0,0,0,1.672,4.232c.523.705,1.411,2.066,2.038,3.023l1.1,1.713-3.083,2.973c-1.881,1.814-3.188,3.527-3.344,4.484a5.372,5.372,0,0,1-2.038,2.771c-1.463,1.058-3.971,5.189-5.33,8.615-.314.857-.418.756-.575-.655a28.341,28.341,0,0,1,1.15-6.6c2.352-8.666,1.62-13.15-2.874-17.886-4.389-4.635-12.071-6.953-17.924-5.341-2.613.705-6.218,3.376-7.316,5.492-.993,1.814-1.515,4.786-1.1,6.046l.314,1.058,1.359-1.008c1.881-1.411,4.128-1.26,7.264.453,3.188,1.814,5.435,4.484,5.435,6.55,0,2.771-2.142,3.073-11.5,1.562-11.026-1.763-23.41,1.411-30.726,7.809l-2.979,2.62-.261,8.464c-.157,4.635-.157,8.464-.052,8.615.1.1.888-.4,1.777-1.108,2.456-1.965,4.389-2.569,16.147-4.736,12.28-2.318,20.693-3.023,24.456-2.015,2.195.554,2.3.655,1.306,1.36-2.717,1.965-7.943,3.527-19.073,5.693-11.026,2.116-17.662,4.988-22.1,9.421l-1.986,1.965,2.508,5.542c2.142,4.736,2.508,6,2.613,9.27.052,2.066.1,3.829.1,3.879a39.59,39.59,0,0,0,3.867-3.527,54.049,54.049,0,0,1,9.772-7.305c3.292-1.965,8.465-5.089,11.5-6.953,9.145-5.592,13.116-6.953,13.482-4.434.209,1.511-1.359,2.62-6.95,4.786-4.964,1.914-15.154,7.507-21.529,11.89-3.867,2.62-7.786,6.7-9.511,9.875L34.9-425.126l1.359,2.418a22.305,22.305,0,0,1,1.933,5.089,21.437,21.437,0,0,0,3.553,8.263c1.359,1.915,2.247,2.116,2.247.453,0-1.713,3.135-6.852,6.009-9.976a58.342,58.342,0,0,1,7.211-6.147,43.7,43.7,0,0,0,9.981-9.22c1.986-2.469,4.964-3.829,6.793-3.124,1.724.655.627,1.965-4.912,5.844-11.235,7.91-18.76,17.029-21.059,25.695l-.784,2.922,2.3,1.965,2.3,1.965-.888,5.341c-.784,4.383-1.1,5.29-1.724,4.988a38.65,38.65,0,0,0-5.748-.4,28.669,28.669,0,0,1-5.591-.4c-1.2-.705-1.2.705,0,1.864.888.806,2.09,1.26,4.337,1.562a17.537,17.537,0,0,1,4.494,1.058c1.777.907,3.24,4.585,4.024,10.328a70.824,70.824,0,0,0,1.568,7.759c.627,2.066.836,3.829.575,4.282-1.045,1.965-3.083,8.061-2.665,8.061.261,0,.993-1.411,1.568-3.174,1.306-3.628,1.881-4.686,2.3-4.031.157.252-.261,1.965-.941,3.829-.732,1.864-1.1,3.376-.836,3.376s.888-1.159,1.359-2.519c.47-1.411,1.045-2.418,1.254-2.267a7.111,7.111,0,0,1,1.306,2.519c.523,1.26,1.15,2.267,1.411,2.267.679,0,.627-.252-.784-2.922a65.085,65.085,0,0,1-4.755-13.754c-.418-2.066-.888-4.232-1.045-4.837-.209-.806.1-1.26,1.306-1.814,1.515-.756,1.568-.756,1.881.554a69.865,69.865,0,0,0,3.188,11.437c1.777,4.585,5.278,11.336,5.853,11.336.261,0-.679-2.166-2.09-4.887a31.141,31.141,0,0,1-2.561-5.693c0-1.31,3.292-6.247,6.584-9.774a17.873,17.873,0,0,1,3.24-3.073,47.4,47.4,0,0,1,.679,5.643c.679,7.96,2.717,17.785,3.658,17.785.627,0,.575-.857-.052-3.023-1.463-4.736-2.613-14.661-2.613-22.672,0-4.585.209-8.565.418-8.867s1.1-.453,1.986-.353l1.62.252.1,5.34a94.845,94.845,0,0,0,.784,9.925c.679,4.232.627,4.686-.261,6.4-2.351,4.434-.1,9.976,3.919,9.976.418,0,.993.655,1.359,1.511.836,1.915,1.829,2.015,1.254.1a9.2,9.2,0,0,1-.314-2.62,22.878,22.878,0,0,0-.732-4.182c-.679-2.62-.679-3.073.1-4.635a11.549,11.549,0,0,1,2.926-3.376c2.247-1.713,3.762-4.333,3.24-5.643-.418-1.008-1.045-1.008-1.411-.1-.157.4-2.09,1.864-4.233,3.224-4.494,2.872-4.128,3.073-4.964-3.073-.941-6.6-.784-7.608,1.463-10.832,1.1-1.562,2.247-3.325,2.613-3.879.523-.857.523-.705.261.957l-.366,1.915,2.613-.353c1.411-.151,3.606-.4,4.912-.5,1.254-.1,2.456-.2,2.613-.2.575-.1,1.515-5.24,1.515-8.615a22.063,22.063,0,0,0-.836-5.895,6.141,6.141,0,0,1-.052-4.988l.784-2.469,1.306,2.872c2.926,6.147,3.658,11.689,2.195,16.324a27.229,27.229,0,0,0-.784,2.872c0,.554,5.539-2.368,7.577-3.93l1.568-1.209-1.777-8.212c-.941-4.534-2.195-9.17-2.822-10.328a38.217,38.217,0,0,0-5.173-6.449,51.812,51.812,0,0,1-4.076-4.585,9.242,9.242,0,0,1,2.09-3.224c.679,0,3.292,2.771,5.278,5.592,4.6,6.55,6.689,12.545,7.525,21.765l.366,3.93,2.456-2.166c4.128-3.678,5.33-5.391,5.017-7.154-.314-1.411-.052-1.763,2.352-3.476,3.867-2.771,4.18-2.821,4.18-.655,0,1.008.261,1.814.575,1.814.836,0,7.629-5.391,8.988-7.2a31.645,31.645,0,0,0,2.456-3.728,5.855,5.855,0,0,1,3.4-2.973,8.739,8.739,0,0,1,3.344-.6c1.15.151,1.1.252-.836,2.62a63.086,63.086,0,0,1-8.518,7.356c-8.622,6.5-12.176,10.026-14.423,14.309a21.472,21.472,0,0,0-1.777,4.333c0,.5,1.1,1.763,2.4,2.821,4.128,3.224,6.427,5.693,7.577,8.162l1.15,2.368.888-2.771a51.155,51.155,0,0,1,6.741-13c1.62-2.418,4.024-6.046,5.278-8.061,2.979-4.887,6.323-8.464,7.473-8.011,1.568.554.941,2.267-1.986,5.492A129.735,129.735,0,0,0,128.6-388.045c-1.986,3.527-3.606,8.716-3.606,11.689,0,1.26.366,1.814,1.724,2.62a22.12,22.12,0,0,1,3.971,3.577c2.4,2.771,4.912,4.736,6.689,5.24,1.045.353,1.1.252.836-2.62-.418-4.182.993-9.421,3.971-15.165,2.717-5.139,3.4-7.053,4.024-10.58.366-2.368,2.561-5.089,4.076-5.089,1.359,0,.993,1.612-1.306,5.794-4.285,7.86-6.793,16.122-6.793,22.42.052,3.275.627,7.356,1.2,7.759a15.556,15.556,0,0,0,5.591,1.31,14.881,14.881,0,0,1,3.658.5l1.777.453-.47-3.376c-.575-4.383-.523-7.406.157-15.82.575-7.255.993-8.464,3.083-8.464,2.247,0,2.195,2.267-.1,7.708-2.247,5.189-2.038,13.956.418,18.893.679,1.26.888,1.36,3.553,1.209,2.926-.151,7.525-1.209,8.831-2.066.575-.353.523-.957-.418-3.527-1.463-4.031-1.463-6.6-.052-6.6,1.359,0,2.456,1.713,3.553,5.542a14.639,14.639,0,0,0,1.2,3.174,21.56,21.56,0,0,0,3.867-1.864c3.971-2.267,4.024-2.418,1.829-8.011-1.2-3.073-2.717-4.786-8.256-9.321-1.777-1.461-3.24-3.023-3.24-3.426,0-2.267,6.271,1.159,10.869,6.046,2.3,2.418,4.755,6.8,4.86,8.615a6.936,6.936,0,0,0,.418,2.015c.366.857.732.554,2.613-2.217a15.322,15.322,0,0,0,2.142-4.131c0-.453-1.463-2.62-3.292-4.837-1.777-2.166-3.867-4.736-4.651-5.794-1.829-2.368-3.815-3.476-9.458-5.441-5.226-1.814-6.95-2.973-6.48-4.182.523-1.31,3.606-1.058,6.793.453a36.481,36.481,0,0,1,16.042,14.963,10.481,10.481,0,0,0,1.881,2.721,43.429,43.429,0,0,0,2.822-7.809c0-1.411-5.8-7.708-8.936-9.824a65.225,65.225,0,0,0-9.249-4.333c-7.316-2.872-9.72-4.182-10.974-5.945-.784-1.26-.784-1.31.627-2.469a6.463,6.463,0,0,1,7.734.05c1.724,1.411,3.031,1.612,3.031.554,0-.554.366-.655,1.463-.3,2.77.756,5.853,2.116,5.853,2.569,0,.252.314.453.732.453,1.359,0,6.271,4.333,9.929,8.766a54.268,54.268,0,0,0,3.762,4.333,41.74,41.74,0,0,0,3.344-6.953c.052-1.411.941-1.612,3.71-.705a34.026,34.026,0,0,0,6.48,1.31c2.038.151,4.442.453,5.382.6,2.195.4,2.195-.453.1-3.678-3.658-5.542-5.591-15.165-5.017-25.342.575-11.336,2.351-20.153,4.337-21.765.679-.5.941-.453,1.777.554,1.1,1.31,1.306,5.592.47,10.631-1.672,10.228-1.724,11.84-.836,18.843a58.9,58.9,0,0,0,1.933,9.673c1.15,3.325,3.815,7.557,5.226,8.263,1.045.554,9.51.655,13.221.2,1.306-.2,2.4-.6,2.4-.907a53.572,53.572,0,0,0-3.971-6.9c-7.211-11.286-8.883-15.719-9.406-25.393-.366-6,.157-8.867,1.881-10.933,1.2-1.411,2.195-1.008,4.076,1.612,1.777,2.519,2.195,4.736,2.717,14.258.366,7.356.679,9.421,1.829,12.747,1.829,5.24,3.658,8.363,6.741,11.638l2.561,2.721,1.515-1.814a19.008,19.008,0,0,1,3.971-3.124c2.195-1.26,3.083-1.411,8.831-1.663l6.375-.252,1.829-1.713a9.77,9.77,0,0,0,2.3-3.023c.314-.705,1.15-2.973,1.933-4.988a21.617,21.617,0,0,1,2.613-5.038l1.2-1.36-.993-2.015a18.755,18.755,0,0,0-8-7.457,66.468,66.468,0,0,0-9.145-2.872c-10.033-2.418-14.057-4.887-12.7-7.809a2.965,2.965,0,0,1,1.829-1.511c3.658-.907,13.9,4.031,23.724,11.386,1.777,1.36,3.4,2.217,3.553,1.965a10.433,10.433,0,0,0,.209-3.124,29.126,29.126,0,0,1,.261-5.24l.366-2.569-3.24-3.124c-7.786-7.406-17.715-11.286-32.346-12.6-5.591-.5-8.674-1.36-9.929-2.821-3.031-3.527,14.841-3.678,26.076-.2,6.323,1.965,10.138,4.282,12.646,7.86,3.188,4.434,3.24.655.157-8.414-.993-2.922-2.09-6.348-2.352-7.608-1.411-6.247-9.458-10.53-19.8-10.53-5.644,0-10.033.857-19.6,3.779-13.168,4.031-16.2,4.484-14,2.166,2.09-2.217,6.271-3.93,21.582-8.817,8.936-2.821,16.67-3.124,22.94-.957a25.4,25.4,0,0,0,2.508.806c.418,0-.47-4.182-1.254-6.2-.941-2.267-2.4-3.073-7.838-4.434-8.361-2.015-18.917-.806-28.113,3.275a103.238,103.238,0,0,0-10.712,6.1c-6.532,4.232-11.705,6.751-12.385,6.1-.209-.151.1-.957.679-1.713,1.045-1.36,3.188-2.569,9.354-5.24,1.724-.806,5.278-2.771,7.838-4.383a64.346,64.346,0,0,1,8.883-4.686c3.762-1.511,4.7-1.663,9.3-1.663a22.789,22.789,0,0,0,5.069-.3c0-.554-3.5-3.376-5.226-4.232-6.95-3.476-15.415-1.411-26.65,6.55-6.271,4.434-8.779,5.794-10.712,5.794-1.15,0-1.306-.2-1.306-1.915a5.788,5.788,0,0,1,.836-3.023c1.254-1.763,4.546-3.124,7.525-3.124,3.4,0,3.5-1.008.157-3.023-3.449-2.116-5.591-2.67-9.145-2.368-5.435.453-10.608,4.736-14.266,11.84a23.66,23.66,0,0,0-2.874,9.472c-.836,6.348-.209,6-10.347,6.046a83.447,83.447,0,0,0-13.273.907c-4.024.756-4.7.756-6.009.1-4.546-2.217-12.071-3.325-23.567-3.426-7.211-.05-8.465-.151-8.256-.756a3.151,3.151,0,0,0,.314-1.209c0-.3.888-.856,1.986-1.36,1.463-.6,3.553-.806,8.727-.856,7.211,0,10.556.554,15.363,2.569a18.73,18.73,0,0,0,3.344,1.209c.888,0,.1-4.686-1.254-7.356-1.515-3.023-7.786-9.22-10.608-10.479-3.135-1.411-7.629-.957-12.123,1.209-1.986.957-3.762,1.814-3.919,1.915-.157.05-.47-1.915-.627-4.434a77.748,77.748,0,0,0-1.411-9.069l-.993-4.585,1.359-3.325c2.717-6.6,9.876-15.014,15.259-17.986l1.724-.907-.366,1.612a30.026,30.026,0,0,1-1.724,4.484c-1.254,2.57-1.411,3.426-1.411,8.867,0,8.968.941,10.379,9.406,14.46,3.083,1.511,14.945,5.542,15.259,5.24.157-.151-2.195-2.569-5.173-5.441-7.368-7.1-11.235-13.754-11.81-20.354-.314-3.879.366-4.434,2.77-2.217,2.09,1.965,2.77,1.31.993-.907-1.463-1.763-3.292-2.116-4.389-.857-1.411,1.663-.314,7,2.979,14.309q.314.756-.314.3c-2.142-1.26,6.271,8.515,10.085,11.739,2.3,1.965,1.829,2.015-2.717.353-8.361-3.073-13.691-6.2-14.893-8.565a25.587,25.587,0,0,1-1.411-4.434c-.836-3.577-.052-8.515,2.143-13.4l1.463-3.325.209,2.519c.1,1.36.157.806.052-1.26l-.157-3.779,3.031-2.116a19.861,19.861,0,0,1,3.449-2.166c.209,0,.261.957.1,2.116-.1,1.209-.1,1.864.052,1.461.1-.4.679.705,1.15,2.519a53.973,53.973,0,0,0,1.777,5.139,4.091,4.091,0,0,1,.523,2.519c-.209.353-.157.453.052.2.261-.2,1.2.957,2.09,2.519a78.4,78.4,0,0,0,10.921,14.208c3.188,3.174,9.092,7.608,10.19,7.608a.53.53,0,0,1,.575.5c0,.3-1.881.5-4.651.5h-4.7l-3.553-4.282a65.988,65.988,0,0,1-10.4-17.231c-1.045-2.57-2.09-4.585-2.3-4.434-.627.353,1.62,6.046,4.285,10.933a78.366,78.366,0,0,0,9.667,13.754l2.247,2.418,6.114-.252c5.8-.252,12.176-1.511,12.176-2.368a12.511,12.511,0,0,0-3.658-1.814,40.391,40.391,0,0,1-11.705-7.1c-7.316-6.4-15.1-17.886-15.833-23.428-.47-3.174.627-2.418,4.912,3.628,8.727,12.243,17.349,19.447,28.061,23.478l3.606,1.36,3.031-3.174a38.413,38.413,0,0,0,4.024-4.686c.784-1.26,1.1-1.411,2.508-1.209,1.2.252,2.142-.05,3.919-1.209,2.508-1.562,8.309-7.154,8.309-7.96,0-.252-1.359-.6-2.979-.806-6.741-.756-13.848-4.484-22.418-11.789-7-6-10.556-10.479-9.2-11.789,1.1-1.058,3.919.705,8.883,5.592,5.957,5.844,8.883,7.96,14.945,10.883,5.435,2.569,10.294,3.426,12.646,2.217,1.306-.655,7-8.414,7-9.472a.619.619,0,0,0-.627-.554c-.366,0-3.867-.353-7.734-.756-10.817-1.209-13.848-2.217-20.954-7.154-4.128-2.821-6.114-5.391-5.487-6.953.261-.705.784-.857,2.874-.655,3.083.3,5.7,1.562,11.287,5.441a62.328,62.328,0,0,0,6.271,3.93,34.212,34.212,0,0,0,12.855,2.62h3.919v-4.182c-.052-4.484-.47-3.627,4.808-10.58,1.777-2.318,1.359-4.988-1.411-9.069a28.155,28.155,0,0,1-2.717-4.887c-.836-2.318-1.2-2.519-4.7-2.519-4.755,0-7.42,1.26-15.363,7.305-4.494,3.426-7.107,4.333-8.622,3.023-1.359-1.209-1.306-1.864.209-3.628,1.986-2.267,10.347-5.945,18.289-7.96l3.606-.957-1.515-1.209c-.836-.655-2.195-1.814-3.083-2.519-3.188-2.721-2.874-2.67-7.473-1.864-8.309,1.411-15,5.29-23.358,13.654-4.964,4.937-8.256,6.3-7.368,3.073.732-2.973,6.375-9.421,11.444-13.15,5.278-3.829,7.838-4.937,12.019-5.24,1.933-.151,3.5-.453,3.5-.655,0-.6-4.233-2.569-8.256-3.93-1.777-.6-4.337-1.562-5.644-2.116-5.8-2.62-13.952,1.663-19.126,10.127-1.986,3.224-3.815,7.457-6.689,15.367-2.456,6.751-3.867,8.112-3.815,3.628,0-2.318,4.755-16.727,6.793-20.757,2.09-4.031,5.069-7.507,7.943-9.27,1.463-.907,2.508-1.864,2.352-2.116-.47-.756-3.971-2.015-5.748-2.066-1.15-.05-2.456.5-4.233,1.763a31.986,31.986,0,0,0-11.81,15.87c-1.881,5.492-1.986,6.046-2.717,14.46-.732,7.91-1.515,11.134-2.351,9.824-.732-1.108-.627-4.585.209-7.1a49.793,49.793,0,0,0,1.359-8.212c.941-9.321,2.508-13.8,5.957-16.878,1.881-1.713,1.724-2.267-.575-1.814-8.57,1.511-12.7,9.27-12.7,23.73,0,6.449-1.254,8.565-3.658,6.247-1.515-1.461-1.359-4.635.314-7.406.732-1.26,1.2-2.368,1.045-2.519-.157-.2-1.15-.1-2.142.2-1.62.5-1.933.453-2.352-.353a9.768,9.768,0,0,1-.523-3.628c0-2.418-.157-2.872-1.515-3.779-2.247-1.663-4.912-2.57-10.451-3.678-9.615-1.965-8.674-1.562-8.518-3.829a5.658,5.658,0,0,1,.627-2.418c.523-.554,6.584,1.663,12.75,4.585,3.658,1.763,4.755,2.116,5.121,1.562.627-.856.157-5.592-.784-8.212-.627-1.763-.993-2.066-2.77-2.418a17.075,17.075,0,0,1-5.853-3.325,57.906,57.906,0,0,0-5.644-3.879c-1.672-.907-1.777-1.058-1.777-3.779v-2.821l5.644-.353c3.083-.2,6.636-.554,7.943-.806a32.571,32.571,0,0,1,11.287.05c3.031.756,4.912,2.872,4.912,5.542,0,1.058.209,1.965.47,1.965.993,0,3.449-3.426,5.591-7.91a22.7,22.7,0,0,1,5.7-7.96l3.553-3.325-.627-2.821c-1.254-6.1-4.6-10.933-9.354-13.4a80.323,80.323,0,0,0-8.361-3.325c-7.838-2.67-12.123-5.592-10.033-6.852.314-.2,1.881.151,3.553.756,2.717,1.008,3.449,1.058,8.465.705,9.563-.756,12.959-.554,16.408.957a49.327,49.327,0,0,1,6.689,3.93,22.043,22.043,0,0,0,3.762,2.418,25.375,25.375,0,0,0,1.881-5.693c.784-3.476.261-5.139-1.986-6.55-5.487-3.325-14.109-4.786-27.748-4.837-8.622,0-12.437-.554-12.959-1.864a1.1,1.1,0,0,1,0-1.008c.209-.151,7.107-.353,15.363-.453,11.287-.1,15.938.05,18.864.554,3.658.705,7.943,2.519,7.943,3.376,0,.2.261.4.523.4.993,0,.47-3.275-1.045-7.054a19.551,19.551,0,0,1-1.568-5.341c0-3.174-3.606-4.736-10.817-4.736a78.823,78.823,0,0,0-19.753,2.771c-5.278,1.411-8.988,1.612-10.5.554-.993-.705-.993-.756.209-1.965a14.216,14.216,0,0,1,3.815-2.368c2.195-.907,3.449-1.008,8.2-.907,7.577.2,21.007-1.058,21.007-1.965,0-1.31-3.031-6.5-4.807-8.162a19.961,19.961,0,0,0-4.964-3.073,24.9,24.9,0,0,1-4.964-3.023c-1.463-1.36-1.933-1.562-3.553-1.26-2.456.453-5.9,2.318-10.5,5.693-5.121,3.728-9.3,6.147-10.712,6.147-3.292,0-3.71-1.663-.941-3.98,1.933-1.663,8.518-4.988,14.579-7.356a27.467,27.467,0,0,0,4.128-1.864c.836-.655-2.195-3.325-5.591-4.937l-3.083-1.461L125.3-691.4c-1.045.806-3.188,1.511-6.009,2.015-9.249,1.713-14.37,3.98-18.969,8.414-4.076,3.879-5.33,6.65-5.382,11.537a12.91,12.91,0,0,0,1.672,7.2c2.038,4.182,2.717,6.9,1.62,6.9-.941,0-3.031-2.116-4.808-4.937-1.411-2.166-1.411-2.318-1.568-12.847-.1-5.895-.366-11.588-.575-12.7-.314-1.713-.261-1.914.314-1.36.47.4.732,1.763.732,3.628,0,1.713.209,3.023.523,3.023.888,0,3.553-1.763,5.435-3.577,2.456-2.418,6.95-8.918,6.584-9.522-.523-.857-2.926-1.814-7.42-3.023-4.86-1.31-5.748-1.914-4.86-3.476,1.254-2.267,7.838-.756,10.974,2.57l1.515,1.612.784-1.763a5,5,0,0,1,2.874-2.721c2.822-1.209,3.815-2.368,3.606-4.081-.261-2.217-3.71-3.829-8.831-4.131a22.01,22.01,0,0,0-14.579,4.232c-3.553,2.519-5.591,3.527-6.062,3.073-.209-.151.052-1.209.523-2.368,2.4-5.794-.888-10.026-8.309-10.782A17,17,0,0,0,70.488-714.268Zm8.047,1.26c4.651,1.612,5.7,3.98,4.024,9.22a12.915,12.915,0,0,1-1.672,3.728c-.836.554-1.463.5-1.1-.1.157-.3-.052-.353-.523-.151-.679.252-.732.353-.157.705.366.252.523.453.314.453a5.651,5.651,0,0,0-1.254.353q-.941.378-.47-.3c.314-.5.157-.554-.732-.1-1.306.705-1.463,1.159-.157.756.575-.2.418.05-.418.756-1.515,1.209-2.508,1.411-1.568.3.523-.6.366-.756-.732-1.058a4.459,4.459,0,0,0-1.986-.05c-.366.151-.052.3.784.3,1.254.05,2.142,1.058.941,1.058-.679,0-10.19,9.018-9.876,9.371.157.1-.418.957-1.2,1.763a5.913,5.913,0,0,0-1.515,2.066c0,.957-4.7,7.255-7.786,10.48a20.316,20.316,0,0,0-4.128,5.693l-.941,2.418-.888-1.915a34.612,34.612,0,0,1-1.672-5.592A27.67,27.67,0,0,0,43.733-679c-1.881-3.628-1.724-5.492.679-8.212a15.525,15.525,0,0,0,4.076-8.817c.418-3.779,4.808-9.573,8.831-11.588a27.1,27.1,0,0,1,5.644-.655c5.121-.2,4.442-.5,9.458,4.534,3.606,3.577,5.121,4.182,6.689,2.67.993-.907,1.045-1.209.418-2.57-1.2-2.872-8.518-8.061-11.339-8.112-1.359,0-.627-1.008,1.045-1.461A18.743,18.743,0,0,1,78.536-713.009Zm30.2,6.1c3.606,1.36,3.971,3.628.836,5.24-1.1.554-1.568.6-2.352.1-1.411-.857-2.038-.756-.836.151.888.655.888.705-.157,1.814a4.06,4.06,0,0,0-1.1,1.562c0,.2-.941-.252-2.142-1.058-5.226-3.678-11.444-3.829-11.444-.252,0,1.612,1.463,2.418,7,3.879a26.412,26.412,0,0,1,5.173,1.814c.784.756-3.658,6.9-7.054,9.875a16.913,16.913,0,0,1-2.979,2.267,4.49,4.49,0,0,1-.418-2.217c-.1-2.872-.993-4.484-4.912-8.867-3.867-4.282-4.755-4.837-5.957-3.728-1.15,1.108-.732,2.62,2.038,7.255,3.762,6.247,3.71,9.17-.052,9.724a20.284,20.284,0,0,0-5.33,2.368c-3.449,2.166-3.971,2.368-3.4,1.36.209-.3-.209-.1-.941.554-1.15,1.008-1.933,1.159-7.316,1.31-7.525.2-11.81,1.461-15.259,4.383-1.306,1.159-2.4,1.914-2.4,1.713,0-.705,1.933-3.224,4.494-5.794,3.553-3.628,9.72-11.991,9.354-12.646-.209-.252-.157-.4.1-.353a35.626,35.626,0,0,0,5.173-4.383c5.121-4.887,10.242-8.162,15.415-9.825a13.1,13.1,0,0,0,4.912-2.771C93.324-707.668,102.521-709.331,108.739-706.913Zm22.992,18.238c1.15.756,1.1.806-2.874,1.713a39.935,39.935,0,0,0-19.073,9.976c-4.546,4.282-6.114,7.356-7.316,14.359-.575,3.023-.993,5.592-.993,5.643,0,.554-1.15-.05-1.411-.756-.157-.453-1.15-2.569-2.142-4.635-2.4-4.837-2.561-8.464-.575-12.6,3.135-6.5,11.862-11.689,21.791-13.1a23.9,23.9,0,0,0,6.166-1.713C127.5-690.992,128.178-690.891,131.732-688.674Zm2.142,1.511c0,.2-2.4,1.36-5.33,2.569-12.855,5.189-17.3,9.069-13.743,11.991,2.352,1.965,4.964,1.058,13.325-4.686,2.717-1.864,6.218-4.031,7.786-4.837,3.083-1.562,6.114-1.914,5.591-.6-.157.4-.1.6.209.453s1.254.2,2.195.806l1.672,1.159-4.337.907a28.009,28.009,0,0,0-5.226,1.461c-.679.4-.575.453.47.2.732-.151,3.4-.705,6.009-1.26,4.076-.806,4.807-.856,6.114-.2a17.492,17.492,0,0,1,6.427,6.953l1.359,2.569-4.337.353c-2.4.2-6.062.6-8.152.907a41.22,41.22,0,0,1-8.361.252c-3.919-.3-4.964-.2-7.473.705-3.553,1.31-5.957,3.527-5.435,5.089.784,2.418,5.539,2.62,13.116.554a58.674,58.674,0,0,1,19.387-2.469c6.48.252,9.04,1.108,9.04,3.124a25.468,25.468,0,0,0,1.568,5.391c1.62,4.434,1.463,5.592-.575,4.333-2.822-1.713-7.107-2.116-23.619-2.066-14.266.05-16.251.151-16.983.907-1.1,1.058-.418,2.267,2.038,3.426,1.463.756,3.24.907,10.817.907,9.929,0,19.021,1.008,23.463,2.62,3.71,1.31,6.114,2.973,6.323,4.383.157,1.058-1.359,7.608-1.777,7.608-.1,0-1.672-1.008-3.553-2.267-7.42-4.988-10.138-5.542-22.365-4.585-5.121.4-5.8.353-8.936-.705-3.762-1.26-5.069-1.108-5.069.6,0,2.872,3.083,4.887,11.757,7.708,7,2.267,8.152,2.821,11.078,5.441,3.083,2.721,5.9,8.263,5.9,11.638,0,.806-6.166,7.356-6.95,7.356a6.8,6.8,0,0,1-.888-1.965c-.888-2.67-4.546-7-8.256-9.976a20.881,20.881,0,0,1-5.226-5.945c-2.3-3.779-8.518-10.177-9.406-9.623a.767.767,0,0,1-.941-.252c-.261-.4-.157-.453.366-.2.627.4.627.3,0-.453a1.584,1.584,0,0,0-1.463-.6c-.418.151-.627.1-.418-.151.157-.252-.47-1.008-1.411-1.612-5.539-3.728-13.482-9.673-13.482-10.076,0-.252.47-.453,1.045-.453a34.513,34.513,0,0,0,6.427-2.67c2.926-1.511,6.689-3.224,8.361-3.88,1.672-.705,2.77-1.31,2.456-1.411-.366-.151-4.18,1.511-8.57,3.577-10.138,4.837-10.294,4.887-12.123,2.569l-1.463-1.814,1.829-1.31a32.4,32.4,0,0,0,3.083-2.67c11.5-11.588,14.475-13.855,23.2-17.886,2.613-1.209,4.442-2.217,4.076-2.217a6.894,6.894,0,0,0-2.247.806,15.859,15.859,0,0,1-2.561.957,7.637,7.637,0,0,0-2.456,1.159c-.784.5-3.24,2.066-5.382,3.376-2.508,1.562-6.584,5.089-11.287,9.673-4.076,3.98-7.629,7.2-7.943,7.2-.993,0-1.2-.957-.679-2.922a53.16,53.16,0,0,0,1.15-5.895,21.39,21.39,0,0,1,6.584-13.15,39.41,39.41,0,0,1,18.6-10.026C133.77-687.667,133.874-687.717,133.874-687.163Zm-48.963,20.3c2.456.655,4.912,3.023,7.211,6.852a21.9,21.9,0,0,0,3.606,4.585c1.463,1.36,1.568,1.562.523,1.058a45.993,45.993,0,0,1-6.271-5.29c-2.717-2.569-5.644-4.937-6.532-5.24-1.672-.6-7.211-.756-8.1-.252-.314.151-.523.151-.523,0a6.331,6.331,0,0,1,2.247-1.26A10.952,10.952,0,0,1,84.911-666.859Zm-1.045,2.771a35.444,35.444,0,0,1,5.748,4.837c4.442,4.333,6.793,5.945,8.622,5.945.732,0,1.15.252,1.045.6-.418,1.108-2.77,2.418-7.107,3.93l-4.389,1.512,2.4-2.267c2.874-2.67,3.083-4.081.784-4.988-2.195-.856-4.18-.4-12.071,2.771-6.95,2.821-12.385,5.844-13.952,7.91l-1.045,1.36-.052-2.217c-.052-6.8,6.271-18.44,10.66-19.649C77.229-665.1,82.037-664.944,83.866-664.088Zm23.254,18.238c2.247,1.612,5.435,3.779,7.159,4.837,1.724,1.108,4.494,2.973,6.166,4.182,1.724,1.209,3.292,2.066,3.658,1.864s.47-.151.209.05c-.209.252,1.2,2.066,3.135,4.031,1.986,2.015,3.815,3.98,4.076,4.333,6.532,8.263,10.085,17.483,9.72,25.09l-.052,1.763-1.672-1.562c-2.142-1.915-3.606-2.67-5.33-2.67-.732,0-1.359-.2-1.359-.4,0-.353-7.577.05-10.556.6-.941.2-1.463.05-1.463-.353,0-.453-.157-.4-.47.05-.732,1.108-8.2,1.411-11.653.4a12.382,12.382,0,0,1-3.5-1.461c-.836-1.008-.941-17.331-.157-21.967.784-4.534.47-5.29-.523-1.209-.47,2.015-.627,5.844-.575,12.142.1,7.154,0,9.22-.47,9.069-.366-.151-.784-1.108-.993-2.217-2.142-13.1-2.195-13.754-1.515-16.928a65.2,65.2,0,0,1,2.874-9.069c2.926-7.658,3.135-8.615,2.09-9.673-2.979-2.872-7,2.318-9.2,11.84-.993,4.232-1.045,5.693-.784,13.654.261,6.1.157,9.27-.209,9.976-.575,1.008-.575,1.008-1.986.1a23.928,23.928,0,0,0-5.33-2.066,28.353,28.353,0,0,1-4.964-1.864c-.993-.705-.993-.856,1.62-5.643a93.626,93.626,0,0,0,4.912-10.882c2.979-7.91,7.107-13.7,12.28-17.331.888-.6,1.254-1.108.888-1.108-1.254,0-8.674,7.708-10.4,10.832a98.829,98.829,0,0,0-4.024,9.169c-3.606,9.522-4.128,9.925-2.456,2.066,1.515-7,2.77-9.724,6.845-14.712a46.451,46.451,0,0,0,3.658-4.887,5.457,5.457,0,0,1,.314-1.159c.261-.6,0-.806-1.045-.806-5.173,0-11.235,8.363-15.886,21.815-1.411,4.081-2.717,7.557-2.822,7.708-.157.151-2.508-1.915-5.278-4.534-5.487-5.24-7.473-8.565-6.062-10.177.366-.453,3.553-2.872,7-5.391a60.84,60.84,0,0,1,17.767-9.371c4.285-1.411,8.413-3.325,8.883-4.131.261-.353.993.151,1.933,1.26A44.608,44.608,0,0,0,107.119-645.85Zm-11.705.453a30.236,30.236,0,0,1-2.979,3.728c-4.076,4.585-5.9,8.766-7.629,17.432a35.539,35.539,0,0,1-2.352,7.658L81.2-614.109l1.15,1.058a20.462,20.462,0,0,0,5.591,2.368,31.234,31.234,0,0,1,5.853,2.318c1.411.957,1.568.957,2.352.2s.888-2.015.732-10.53c-.157-7.457,0-10.58.679-13.7,1.1-5.24,3.919-11.134,5.748-11.94,2.717-1.159,2.613,0-.47,8.766-2.77,7.759-2.926,8.515-2.926,13.049a73.124,73.124,0,0,0,.993,10.278c1.1,5.844,2.142,7.557,5.33,8.817,1.359.554,1.515.857,1.515,3.023a7.913,7.913,0,0,1-.261,2.62,5.1,5.1,0,0,1-2.508-.5c-3.188-1.058-9.3-1.36-12.228-.554-3.292.857-7.159,3.174-8.622,5.089-1.1,1.511-1.15,1.511-1.515.5-1.1-2.821-2.195-13.553-2.247-21.513-.052-8.162,0-8.766,1.463-12.847a68.325,68.325,0,0,1,7.211-14.51c1.62-2.267,4.755-4.534,6.375-4.585C96.355-646.757,96.355-646.706,95.414-645.4Zm47.918,30.935a21.718,21.718,0,0,1,2.822,4.686l.888,2.217-2.352,4.786c-2.351,4.837-3.919,6.8-3.135,4.031a27.645,27.645,0,0,0,.314-5.441c0-4.182-1.306-8.565-4.128-13.956a17.55,17.55,0,0,1-1.254-2.721C136.487-621.515,141.5-616.83,143.332-614.462Zm-71.747,7.809a11.238,11.238,0,0,1,5.9,5.492c1.306,2.67,1.254,4.282-.314,9.371-1.359,4.534-1.672,7.96-.784,9.573.418.756.366,1.058-.209,1.26-1.1.4-3.658-.5-7.891-2.872l-3.658-2.015,2.4.3c3.188.4,5.173-.353,5.173-1.914,0-2.267-2.038-3.829-9.563-7.356-8.988-4.182-11.653-5.089-15-5.089-1.463,0-2.613-.151-2.613-.4,0-.705,3.71-3.224,7-4.685C58.417-607.862,66.83-608.567,71.586-606.652Zm30.674,9.018a47.21,47.21,0,0,1,15.05,7.507,21.477,21.477,0,0,0,5.539,3.376c1.829.5,2.142.856,2.613,2.771.627,2.267.784,5.24.314,5.24a40.78,40.78,0,0,1-3.971-1.814c-5.539-2.67-12.123-5.139-14.841-5.492-6.009-.907-6.95,4.736-1.1,7.053.888.353,4.912,1.511,8.936,2.469,11.444,2.872,13.325,3.779,13.325,6.55a15.607,15.607,0,0,0,.523,3.325c.47,1.663.418,1.864-1.254,3.275a9.227,9.227,0,0,0-3.553,6.8c-.052,2.015-.052,2.015-1.15,1.108-.627-.5-2.717-2.267-4.651-3.879a40.268,40.268,0,0,1-5.748-5.895c-3.135-4.333-9.145-7.356-12.123-6.046-2.822,1.26-.523,5.542,4.755,8.918,1.724,1.058,4.337,2.721,5.853,3.678a64.78,64.78,0,0,1,12.855,11.739c3.031,3.879,3.449,5.844,1.777,8.111a56.078,56.078,0,0,0-3.24,5.038,18.478,18.478,0,0,1-2.352,3.628c-.261.151-.627-.756-.836-1.965-.523-3.426-5.435-10.127-12.594-17.18a97.382,97.382,0,0,1-8.413-9.17c-2.456-3.275-3.553-4.131-5.33-4.131-1.411,0-1.933,1.915-1.15,4.131.314.907,2.613,3.829,5.069,6.449,10.556,11.235,16.408,20.455,16.408,25.644,0,1.612-.261,2.166-1.411,2.973a38.471,38.471,0,0,1-6.114,3.124,11.919,11.919,0,0,1-.575-2.922c-.993-9.27-2.3-11.84-9.929-18.994-5.226-4.887-6.062-5.895-7.055-8.666-1.2-3.275-2.038-3.98-3.71-3.174-2.4,1.26-1.986,4.736,1.515,13.1,4.389,10.58,4.6,13.905,1.1,20.1-2.874,5.139-2.717,5.038-8.413,4.736l-5.017-.3,1.306-2.721c1.2-2.569,2.456-8.414,1.724-7.96a7.469,7.469,0,0,0-.679,2.872,20.973,20.973,0,0,1-1.672,5.24c-1.306,2.62-1.359,2.62-5.644,3.879-5.173,1.511-7.682,1.965-7.682,1.461,0-.252.784-.806,1.777-1.209,4.912-2.267,8.674-7.2,13.116-17.281.366-.806.523-.5.836,1.511.314,2.166.314,2.015.157-.907a17.117,17.117,0,0,1,1.2-7.305c1.1-3.174,1.411-5.139,1.62-10.58.157-4.333.052-6.65-.314-6.65-.314,0-.418-.806-.314-1.914a22.651,22.651,0,0,0-.209-5.139c-.418-2.821-.523-3.023-.627-1.26l-.1,2.015-.418-2.015c-1.515-7.154-1.2-15.719.627-17.483,1.515-1.461,1.62-.857.418,2.066-.836,2.116-1.045,3.628-.941,8.011L77.6-566.4l.366-6.046c.314-4.837.627-6.65,1.724-9.069.732-1.663,2.038-4.736,2.979-6.8,2.4-5.542,5.017-7.859,10.5-9.27A15.128,15.128,0,0,1,102.26-597.634Zm63.856,5.038c1.045.453,1.672.957,1.411,1.159-.261.252-1.359,1.058-2.456,1.814-4.546,3.224-7.838,8.867-11.653,20.2-2.665,7.96-3.292,12.444-1.829,13.3,1.881,1.108,2.822-.4,6.584-10.278,4.546-11.991,8.413-17.734,13.691-20.505,3.292-1.713,6.9-2.267,8.831-1.26l1.463.705-1.568.806c-1.724.957-1.411,1.108.523.3a5.8,5.8,0,0,1,3.292-.2l1.986.4-3.815,1.108a25.792,25.792,0,0,0-9.458,4.988l-1.306,1.058,1.2-1.663a16.9,16.9,0,0,1,3.083-2.972c2.77-1.965,3.24-2.469,1.254-1.36-3.71,2.015-6.271,5.542-11.287,15.568a43.545,43.545,0,0,0-2.926,7.305c-1.724,7.305-3.083,9.522-6.95,11.386a49.635,49.635,0,0,0-5.121,2.973l-2.456,1.663-.418-6.1c-1.15-16.626,1.1-27.257,7.211-34.26,1.15-1.31,1.986-2.519,1.829-2.67s-1.045.705-2.038,1.915c-5.017,5.945-7.054,11.789-7.786,21.966a81.028,81.028,0,0,0-.209,10.933c.157,1.914.314,4.736.366,6.2.052,3.023-.47,3.829-5.591,7.507l-3.135,2.267-1.986-2.166c-3.344-3.678-6.48-8.615-7.368-11.487-1.411-4.686-.888-10.429,1.15-12.041,1.411-1.058,1.515-.655.575,2.066-.732,2.116-.836,3.124-.418,4.534.836,3.073,4.233,4.484,5.591,2.368.888-1.411,1.672-6.953,1.672-12.243,0-6.4.941-9.875,3.606-13.351,1.359-1.814,5.069-4.131,6.584-4.131.888,0,.888.05-.1,1.108-2.77,2.973-4.6,8.615-5.121,16.022a67.488,67.488,0,0,1-1.359,8.666c-1.254,4.837-1.254,6.046.052,7.507.993,1.159,1.1,1.159,1.777.3.941-1.159,1.777-5.542,2.142-11.689.47-7.255,1.62-11.991,4.18-17.18,2.038-4.131,6.793-10.177,7.473-9.573.1.151,1.306-.655,2.613-1.713C162.458-593.553,163.294-593.7,166.116-592.6ZM45.928-591.084c3.658.705,7.734,1.612,9.04,1.965A84.541,84.541,0,0,1,68.5-583.074a25.7,25.7,0,0,0,5.382,2.368l2.352.6-.261,2.318a15.486,15.486,0,0,1-.366,2.469,4.619,4.619,0,0,1-1.515-.4,11.383,11.383,0,0,0-3.344-.453c-1.62.05-1.359.151,1.306.655a17.688,17.688,0,0,1,3.5.856,38.456,38.456,0,0,1,.523,4.585c.366,5.038.993,4.434-5.435,5.391a40.511,40.511,0,0,0-13.43,5.693,83.754,83.754,0,0,0-8.256,6.9c-4.076,3.779-5.8,5.038-5.9,4.434-.1-.453,1.306-2.469,3.135-4.534s4.285-4.887,5.539-6.348c1.829-2.116,3.292-3.073,7.577-5.038,2.926-1.36,6.95-2.973,8.883-3.628,4.442-1.36,6.95-3.476,6.114-4.937-1.306-2.418-6.532-2.015-12.594.857-5.539,2.62-9.981,5.895-15.52,11.336-2.4,2.368-5.069,4.534-5.9,4.837-1.359.453-1.515.4-1.515-.6a17.556,17.556,0,0,0-1.724-4.635,29.3,29.3,0,0,1-2.142-5.391c-.314-1.713-.261-1.864,1.359-2.368.941-.252,3.031-.705,4.651-1.008a73.531,73.531,0,0,0,9.824-3.073c6.375-2.368,9.458-3.224,13.377-3.678,1.359-.151,1.254-.2-.47-.3-2.561-.05-6.9,1.008-11.862,2.973-4.285,1.713-9.72,3.527-10.608,3.527-.314,0,2.142-1.461,5.435-3.275,6.95-3.728,10.556-4.786,16.3-4.786,4.964,0,8.256-1.058,7.159-2.318-2.038-2.368-7.473-2.922-14.318-1.512-5.382,1.159-7.054,1.713-16.826,5.794a31.688,31.688,0,0,1-4.285,1.562c-.627,0-.261-8.918.523-12.948.575-2.721,2.142-5.189,3.344-5.189C38.874-592.344,42.218-591.79,45.928-591.084Zm144.748,6.4c.941.353,1.724.756,1.724.957s-1.045.5-2.352.705c-6.323.907-15.572,8.011-21.529,16.475-2.822,4.081-1.881,6.2,2.4,5.189.732-.2,3.658-2.569,6.584-5.492,8-7.86,13.848-11.286,21.582-12.6,4.442-.705,4.546-.705,7.891,2.166l2.3,1.965-3.083.857c-13.168,3.527-18.707,6.65-18.707,10.58,0,2.267.732,2.973,3.031,2.872,2.456-.1,4.912-1.36,10.556-5.391,5.957-4.333,8.047-5.29,11.862-5.29h3.031l1.1,2.368a25.3,25.3,0,0,0,2.038,3.779l.993,1.31-3.031-.252a18.25,18.25,0,0,0-6.114.554c-1.724.4-3.71.907-4.442,1.108-1.1.252-.732-.252,1.829-2.872,3.083-3.174,3.083-3.174-.784.4a29.884,29.884,0,0,1-7.734,5.441c-3.449,1.612-4.18,1.763-8.361,1.763-10.347,0-24.874,2.469-29.838,4.988-1.306.705-1.359.453-.314-1.461a45.851,45.851,0,0,0,2.09-6.3,54.569,54.569,0,0,1,7.055-15.115,21.847,21.847,0,0,1,12.7-8.565C186.6-585.391,188.481-585.442,190.676-584.686Zm-82.564,16.525a13.411,13.411,0,0,1,3.553,3.728,52.78,52.78,0,0,0,7.055,7.1c3.815,3.224,5.226,4.736,5.539,5.945a25.447,25.447,0,0,0,1.306,3.879l.993,2.267-1.15-1.511c-3.188-4.232-11.13-10.983-17.558-15.014l-3.71-2.318.888-2.519a8.436,8.436,0,0,1,1.1-2.57A10.671,10.671,0,0,1,108.112-568.161ZM77.281-560.3c.784,5.693.836,14.611.1,18.843-1.411,8.615-6.427,18.742-11.5,23.276a18.326,18.326,0,0,1-2.979,2.418c-.209,0-.314-.907-.209-2.015.314-2.973-1.777-6.751-5.748-10.379-1.829-1.663-5.173-4.786-7.525-6.9-4.389-4.031-6.48-7.2-6.48-9.824,0-1.26.47-1.864,2.508-3.325a65.318,65.318,0,0,0,5.748-5.038c5.957-6,13.482-10.076,20.066-10.983a24.923,24.923,0,0,0,4.024-.705C76.132-565.692,76.707-564.231,77.281-560.3Zm141.769-3.376a4.108,4.108,0,0,1,2.247,2.217c1.1,2.066.679,4.131-1.2,6.3l-.941,1.108-1.829-1.008c-1.2-.705-3.815-1.26-8.256-1.763-3.553-.453-7.525-.907-8.831-1.058l-2.351-.3,2.351-1.209C207.659-563.122,214.87-564.785,219.051-563.677ZM128.6-561.762c-.784,1.915-.679,6.953.157,9.976.784,2.67,4.285,8.162,7.473,11.537,1.881,2.015,1.881,2.67,0,2.922-1.62.252-7.211-5.744-9.249-9.925-1.515-3.073-1.724-4.031-1.724-7.608s.157-4.283,1.463-6.147C128.335-563.425,129.432-563.828,128.6-561.762Zm74.255,5.744c3.292,1.108,4.755,1.209,2.09.151-1.777-.705-1.672-.705,2.09-.4,5.069.353,8.831,1.108,10.4,2.066,1.2.756,1.2.756.209,1.763-1.045.957-1.045.957-2.822,0a13.862,13.862,0,0,0-3.083-1.31c-.732-.2-.1.2,1.359.907a10.534,10.534,0,0,1,2.979,1.713,10.621,10.621,0,0,1,0,3.829l-.314,3.325-3.71.1-3.71.1,4.18.3c3.031.2,3.919.4,3.188.705-1.515.705-9.458-.353-10.5-1.36a2.591,2.591,0,0,0-1.306-.856,4.967,4.967,0,0,1-1.359-.353c-.679-.252-.784-.151-.47.4.209.4-.261.1-1.1-.6-1.881-1.612-4.651-3.275-4.18-2.519a7.2,7.2,0,0,0,1.986,1.36c.836.4,1.411.907,1.254,1.058-.261.3-7.107-4.232-7.107-4.686,0-.151.784.2,1.724.806l1.672,1.108-1.306-1.108c-1.515-1.31-7.159-4.131-10.033-4.988-3.815-1.209-6.95.856-5.9,3.93.47,1.461,5.487,5.744,9.563,8.162,1.933,1.108,2.926,1.864,2.195,1.713a35.785,35.785,0,0,1-8.413-3.577c-2.613-1.562-11.444-9.17-11.444-9.825s9.354-2.519,14.893-2.922C192.766-557.58,199.3-557.177,202.852-556.019Zm-19.7,12.747a31.512,31.512,0,0,0,7.159,2.821c1.568.3,4.389.857,6.271,1.26s6.323,1.058,9.929,1.511c3.553.453,6.584.907,6.689,1.008.366.3-4.7,7.305-5.644,7.809-2.613,1.36-8.674-.151-14.475-3.577a52.629,52.629,0,0,1-11.914-9.321c-5.748-5.693-9.092-7.406-10.712-5.492-1.62,1.864,1.986,6.9,9.667,13.452,7.629,6.5,15.781,10.883,21.843,11.739,1.777.252,2.352.554,1.986.907-1.1,1.058-9.615-1.26-15.99-4.282-9.772-4.736-16.983-10.58-22.052-17.986-1.62-2.368-3.4-4.988-3.971-5.744-.523-.806-.888-1.511-.784-1.562.209-.2,6.584-2.62,7.734-2.922.47-.151,2.665,1.411,5.382,3.879A55.257,55.257,0,0,0,183.151-543.272Zm-77.39-5.391c7.577,7.255,12.437,14.359,12.437,18.238a3.743,3.743,0,0,0,.47,2.267c.679.453,2.4-1.713,4.389-5.492a22.822,22.822,0,0,1,3.24-4.887c1.463-1.411,1.568-2.922.575-5.693-.366-1.008-.366-1.008.314,0a51.217,51.217,0,0,0,3.71,4.081,27.269,27.269,0,0,1,2.979,3.376c0,.2-.732.705-1.568,1.108-4.6,2.267-11.5,10.278-15.206,17.483l-1.724,3.426-1.463-3.879c-1.306-3.527-1.411-3.98-.679-4.988,2.665-3.98-2.3-14.157-12.332-25.292-1.724-1.915-1.933-2.318-1.411-3.426a3.234,3.234,0,0,1,.836-1.209C100.483-553.55,102.939-551.333,105.761-548.663Zm55.966.252c.679.907,2.352,3.376,3.71,5.492a36.309,36.309,0,0,0,5.435,6.5c1.62,1.461,4.86,4.434,7.159,6.55a53.681,53.681,0,0,0,10.712,7.759c.888.4-.366-.5-5.382-3.879a17.066,17.066,0,0,1-3.4-2.67,20.971,20.971,0,0,1,4.389,2.066,56.986,56.986,0,0,0,14.788,5.693l3.867.907-2.822,2.418c-4.285,3.678-4.86,3.93-9.145,3.073-10.19-2.066-20.641-9.724-26.076-19.095-3.292-5.693-5.017-7.457-6.845-7.255-2.247.252-2.717,1.511-1.568,4.534,1.359,3.678,4.651,8.515,6.689,9.824a45.645,45.645,0,0,0,5.9,2.771,35.915,35.915,0,0,1,6.793,3.476,41.781,41.781,0,0,0,11.235,5.744c3.553,1.108,3.867,1.31,2.926,2.519-.627.856-.888.856-3.24.252-9.72-2.62-21.791-9.472-27.643-15.719-2.352-2.469-10.19-14.762-10.19-15.921,0-1.008,9.354-6.65,10.974-6.65C160.263-550.023,161.047-549.267,161.726-548.411Zm-12.7,6.55a18.007,18.007,0,0,0,1.986,3.628c1.1,1.713,2.77,4.484,3.71,6.2,1.515,2.771,6.009,7.557,9.2,9.774a13.246,13.246,0,0,1,2.456,2.519c2.142,2.771,6.793,7.557,7.055,7.305.157-.151-1.1-1.612-2.77-3.275a40.571,40.571,0,0,1-3.449-3.779c-.261-.4,1.829.554,4.6,2.066,4.442,2.469,14.841,6.7,16.356,6.7,1.045,0,.575.806-1.777,3.023-2.508,2.368-2.561,2.368-6.009.2l-1.306-.806,1.306,1.058,1.306,1.108-2.09-.806c-9.563-3.678-18.655-11.588-26.859-23.377-3.449-4.887-4.285-5.744-5.644-5.492-3.658.655,2.717,13.956,10.921,22.823a43.421,43.421,0,0,0,13.639,10.58c3.24,1.511,4.337,2.267,3.658,2.418-3.449.957-4.076.857-7.42-1.008-9.145-5.24-20.9-20.908-23.776-31.69-1.359-5.038-1.15-6.2,1.568-8.414C147.931-542.869,149.028-543.121,149.028-541.861ZM95.466-533.3c.366,4.282.836,8.666,1.045,9.774a115.014,115.014,0,0,0,2.665,12.444c.993,2.922.627,4.282-.523,1.814-3.135-7.053-6.218-26.7-5.069-32.7.052-.1.314.05.627.353S95.048-537.579,95.466-533.3Zm5.957-.151c1.306,2.469,1.986,5.592,2.456,10.479a31.609,31.609,0,0,0,.47,4.182c.052,0,.993-.353,1.986-.756a17.646,17.646,0,0,1,2.195-.756c.209,0,1.359,2.116,2.665,4.736,2.038,4.131,2.247,4.887,1.724,6.247-.261.806-.941,3.527-1.463,5.945l-.888,4.484-2.247.453c-1.986.4-2.4.353-2.979-.453-.732-.957-.941-.705-.784.857.157,1.36-.366,1.108-1.254-.655-.836-1.511-.627-2.821.209-1.511.941,1.461,1.15-1.461.366-5.139-.418-1.864-.366-1.965,2.77-4.887,1.881-1.763,3.188-3.376,3.188-3.98,0-1.31-.627-1.36-1.829-.05a3.118,3.118,0,0,1-1.62,1.008,13.224,13.224,0,0,0-3.292,1.713l-2.665,1.713-.523-2.066c-.314-1.159-.679-2.469-.836-2.872-.732-2.015-1.881-9.018-2.561-15.82-1.1-10.479-1.2-10.076,1.62-7.154A25.635,25.635,0,0,1,101.424-533.447ZM159.9-539.09a30.056,30.056,0,0,1,3.762,5.441,41.914,41.914,0,0,0,5.382,7.154c1.463,1.461,2.508,2.67,2.3,2.67-.941,0-7.525-3.174-8.622-4.182-2.456-2.217-6.323-10.278-5.539-11.537C157.6-540.2,158.748-540,159.9-539.09Zm-24.978,4.736a7.583,7.583,0,0,1-2.195,1.713,43.637,43.637,0,0,0-14.788,16.979c-2.09,4.182-2.508,3.023-.47-1.411a43.372,43.372,0,0,1,13.482-16.676c2.352-1.663,3.188-2.066,3.553-1.562A3.179,3.179,0,0,1,134.919-534.354Zm-58.526,26.7c9.04,1.411,14.579,7.96,13.9,16.475a22.683,22.683,0,0,1-.523,4.081,7.629,7.629,0,0,0-.575,2.116,4.078,4.078,0,0,1-.993,2.217,1.3,1.3,0,0,0-.314,1.511c.418,1.159.1,2.771-.627,2.771-.261,0-.314-.252-.1-.6s.157-.4-.209-.2c-.575.3-3.24-1.31-5.226-3.124-.836-.705-1.881-.806-1.411-.1a43.1,43.1,0,0,0,4.7,3.325c2.456,1.511,4.442,3.023,4.442,3.275,0,.2.366.3.784.151,1.1-.4,1.045,1.36-.314,8.716-1.568,8.766-2.926,16.676-3.344,19.5a11.7,11.7,0,0,1-1.045,3.527,10.274,10.274,0,0,0-.993,3.325c-.209,1.612-.157,1.965.157,1.26.627-1.209.679-.453.209,1.814-.261,1.411-.366,1.511-.732.705-.314-.856-.418-.806-.418.353-.052,2.066-1.411,3.073-8.779,6.65-7.943,3.879-10.347,5.391-14.161,8.968-4.808,4.434-9.2,12.041-10.242,17.734l-.366,1.965-1.1-1.008-1.045-1.008,1.1-3.476c2.665-8.464,9.929-16.727,22.679-25.846,5.069-3.577,5.226-5.592.418-5.592-2.456,0-3.031.453-9.092,7.255-1.411,1.562-2.77,2.821-3.083,2.821-.523,0-2.874,1.763-7.368,5.492-4.128,3.426-9.249,10.278-9.249,12.394,0,1.663-1.15.6-2.613-2.368-1.881-3.829-1.933-5.189-.366-9.22.888-2.318,1.986-3.879,4.808-6.6,2.038-1.965,4.389-4.081,5.226-4.686l1.568-1.159-1.829,1.008a31.884,31.884,0,0,0-4.024,3.174c-1.254,1.159-2.247,1.864-2.247,1.511,0-1.209,8.256-8.615,13.064-11.638,8.256-5.189,11.339-6.5,19.178-8.061a34.087,34.087,0,0,0,9.2-2.922c.209-.1.418.705.418,1.763.052,1.31.209.857.523-1.562A19.235,19.235,0,0,0,86.635-455c-.1-.3-.261,0-.261.705-.052,1.31-1.1,2.469-3.188,3.527-1.254.655-.836.554-8.727,2.267a43.633,43.633,0,0,0-16.408,6.9A79.744,79.744,0,0,1,51-437.47a38.429,38.429,0,0,0-12.28,10.883c-1.777,2.62-2.874,3.325-2.247,1.36.679-2.066,3.658-6.1,6.114-8.313,5.382-4.736,19.8-12.948,27.121-15.467,5.748-1.965,7.891-7.305,2.979-7.305a2.705,2.705,0,0,1-1.777-.5,1.072,1.072,0,0,0-.836-.5c-.314,0-.418.2-.261.4.418.655-.314,1.31-2.456,2.267a80.319,80.319,0,0,0-7.055,4.031c-2.77,1.763-6.218,3.879-7.682,4.635A85.062,85.062,0,0,0,39.4-437.016L36.679-434.5v-1.763c0-1.814-1.411-6.2-3.083-9.724-1.829-3.829-1.829-4.232-.209-5.895,4.808-4.887,15.05-8.615,25.71-9.27a29.452,29.452,0,0,0,5.8-.756c.47-.252-.418-.3-2.09-.151-2.822.252-2.77.2,1.568-1.008,7.054-1.965,8.256-2.418,10.033-3.879,1.672-1.31,1.672-1.411.784-2.318-1.359-1.31-11.183-1.562-18.342-.4-14.684,2.318-23.776,4.484-24.612,5.794a1.127,1.127,0,0,1-.784.5c-.523,0-.732-12.545-.209-13.8a7.4,7.4,0,0,1,3.031-2.116c1.881-.857,2.195-1.108,1.1-.907l-1.568.3,1.568-1.31c2.3-1.864,8.413-4.736,12.28-5.693a43.19,43.19,0,0,1,9.72-.857c5.644-.05,6.48.05,7.577.957.627.554.993.705.732.3-.314-.554-.157-.655.836-.353a22.371,22.371,0,0,0,2.508.554,2.792,2.792,0,0,1,1.568.655,6.986,6.986,0,0,0,3.031.756,6.762,6.762,0,0,1,4.6,2.015c1.045.957,1.724,1.864,1.463,1.965-.627.3-3.919-.856-3.553-1.26.157-.2-.052-.151-.366.151a3.191,3.191,0,0,1-1.568.5,6.774,6.774,0,0,0-2.561.806c-1.463.705-1.933.705-5.435-.151-2.09-.5-3.762-1.008-3.658-1.159.314-.453-14.161.353-17.035.957a30.194,30.194,0,0,0-5.435,1.914c-2.874,1.461-8.622,5.089-8.622,5.492,0,.353,3.188-1.31,4.285-2.318,1.515-1.36,6.636-3.577,10.085-4.434,5.435-1.26,19.544-.655,22.888,1.008a1.972,1.972,0,0,1,.888,1.612c0,2.569,5.017,4.988,11.548,5.693,2.195.2,3.24.1,4.076-.453a3.965,3.965,0,0,1,2.351-.554c1.1.2,1.254.5,1.1,2.116-.209,1.713-.209,1.763.209.3.627-2.066.679-4.736.1-3.879-.732,1.159-2.3.453-2.77-1.159a4.229,4.229,0,0,0-1.933-2.418c-1.777-1.008-4.912-4.585-4.389-5.038.157-.2-1.1-.957-2.822-1.763-3.083-1.411-3.083-1.411-1.933-2.267,1.515-1.108,2.038-3.879,1.1-6a13.9,13.9,0,0,0-5.8-5.744c-.888-.4-1.15-.453-.627-.1a25.607,25.607,0,0,1,3.135,2.62c1.672,1.511,1.777,1.663.366.6-3.815-2.922-7.264-3.98-9.824-3.124-.732.2-1.2.151-1.2-.151,0-.756,2.3-1.209,4.6-.856,1.672.252,1.777.2.627-.252a8.248,8.248,0,0,0-3.24-.3c-2.247.3-2.247.353-1.254-1.814a10.049,10.049,0,0,1,5.7-4.988C71.324-508.307,72-508.357,76.393-507.652Zm156.505,6.6,2.09.655-3.135.3-3.135.3,2.874.1a20.333,20.333,0,0,1,4.964.806l2.09.655-2.561.05c-5.748.1-12.855,2.872-20.641,7.91-4.389,2.821-11.392,6.2-10.712,5.189a12.556,12.556,0,0,1,3.24-1.814c1.568-.655,2.717-1.31,2.561-1.461-.418-.4-5.644,2.267-8.1,4.182s-4.024,4.383-3.553,5.542c.679,1.713,5.382-.3,15.311-6.6,7.42-4.686,13.482-7.356,19.6-8.565,4.128-.806,13.273-1.108,14.318-.4.366.2-1.881.353-4.964.4a39.548,39.548,0,0,0-18.028,4.232c-4.024,1.915-15.154,9.27-18.76,12.344a5.89,5.89,0,0,1-2.09,1.36c-.261-.05-.314.1-.157.353.418.6-.941,1.663-1.515,1.159-.261-.2-.261-.05-.052.252.47.806.052.806-1.411.1-1.045-.453-1.045-.453-.261.2.888.655.888.756-.052,1.612-.575.453-1.306.705-1.672.453-.366-.2-.523-.151-.314.151.627.957-1.1,1.814-2.979,1.461-1.986-.353-2.508-1.108-1.777-2.469a1.745,1.745,0,0,0,.261-1.209c-.157-.1-.418.252-.627.806-.157.6-.575.957-.836.806s-.314.05-.157.453c.209.554,0,.806-.732.806-1.62,0-2.717-.554-2.717-1.31,0-.856-.888-.957-1.15-.1-.314.857-2.665.1-3.4-1.058-.732-1.108-.209-4.786,1.306-9.573.784-2.418.888-2.569,1.254-1.511s.366,1.008.209-.252a9.691,9.691,0,0,1,.941-4.031c1.254-2.721,6.218-8.363,7.368-8.363a2.221,2.221,0,0,0,1.306-.756c1.1-1.26,5.591-2.318,7.054-1.663,1.515.655,1.2,1.411-.575,1.411-2.09,0-6.009,2.066-7.054,3.728-1.411,2.217-1.359,5.643.1,6.4,1.1.554,2.4.453,4.337-.3.784-.353.888-.252.575.3-.366.554-.314.6.314.151,13.168-9.774,17.088-12.192,21.634-13.3A23.62,23.62,0,0,1,232.9-501.052Zm-31.615.3c0,.252-.888.705-1.986,1.008-4.285,1.26-11.653,8.464-12.385,12.041-.209,1.058-.523,1.562-.888,1.36s-.418-.151-.209.252c.209.3-.157,2.116-.784,3.98a17.78,17.78,0,0,0-1.1,3.98c.1.353-.052.655-.314.655s-.366.6-.261,1.36c.314,2.368-.47,2.973-2.4,1.864-1.15-.655-1.515-1.159-1.306-1.713a43.147,43.147,0,0,0,1.1-5.542c1.672-11.185,9.2-19.649,17.506-19.649C199.925-501.153,201.284-500.951,201.284-500.75Zm-85.96,4.686,1.568.957H115.48a17.3,17.3,0,0,0-4.233,1.008c-3.4,1.209-8.988,6.55-12.019,11.437a18.954,18.954,0,0,1-3.4,4.131c-.784.554-1.15,1.058-.836,1.058.836,0,2.561-1.915,5.591-6.3,1.463-2.217,3.031-4.081,3.449-4.182.418-.151.575,0,.366.353-.679,1.058.261,3.628,1.515,4.182.888.4,1.724.252,3.71-.554l2.561-1.058-3.344,3.023c-4.337,3.829-8.831,6-13.325,6.4-2.3.2-3.449.1-3.449-.252,0-.3.47-.705,1.1-.857.575-.2.941-.453.784-.6s.209-1.159.784-2.217a32.466,32.466,0,0,0,1.829-4.988c1.15-4.333,2.038-6.247,3.971-8.313C104.454-497.172,111.091-498.633,115.324-496.064Zm22.052,2.771c5.7,4.484,8.518,8.212,9.354,12.243.366,1.562.261,1.713-.627,1.31a47.989,47.989,0,0,0-12.594-3.174c-9.615-1.008-19.8,1.612-18.76,4.837a2.439,2.439,0,0,0,1.306,1.36c.575.151,6.218.353,12.646.453,12.437.2,15.415.6,20.118,2.872a6.074,6.074,0,0,1,3.188,2.872c.732,1.713,1.777,6.247,1.463,6.55a9.752,9.752,0,0,1-2.665-1.36,70.04,70.04,0,0,0-15.1-6,57.268,57.268,0,0,0-19.178-1.864c-6.218.353-6.741.3-8.413-.705-2.508-1.512-6.271-1.411-10.556.252-3.71,1.461-6.218,1.36-5.9-.2.1-.655.627-.806,2.038-.705a12.64,12.64,0,0,0,4.128-.6,6.481,6.481,0,0,1,2.717-.5c.209.151.418,0,.418-.252,0-.3.366-.554.836-.554.888,0,5.7-3.275,11.339-7.759,3.553-2.821,8.1-5.341,9.72-5.341.418,0,.575-.151.418-.3-.575-.554-4.964,1.31-7.473,3.124-2.926,2.166-2.979,1.461-.052-1.159,5.487-4.837,11.705-7.809,16.147-7.557C134.4-495.308,135.181-495.006,137.375-493.293Zm118.045,1.159c1.777.655,3.083,2.519,3.606,5.139l.366,1.864-3.083-1.008c-3.658-1.209-11.862-1.411-16.617-.453-3.344.705-19.544,6-22.992,7.557-3.449,1.511-5.591,3.527-5.382,5.038.157,1.108.47,1.31,1.986,1.461,1.881.151,3.5-.252,15.729-3.879,17.819-5.24,27.016-4.686,33.809,2.015,1.463,1.461,3.031,4.837,2.508,5.391a7.476,7.476,0,0,1-2.508-1.108c-2.3-1.31-7.682-2.872-9.563-2.771-.575.05.418.353,2.195.756,3.971.806,9.3,3.325,10.294,4.887a10.452,10.452,0,0,1,1.1,2.318c.366,1.108.1,1.058-2.352-.857a29.543,29.543,0,0,0-13.482-5.844c-3.762-.655-5.017-.655-9.667,0-6.532.856-10.5,1.814-14.684,3.527-10.66,4.333-12.594,4.534-18.185,2.015a55.241,55.241,0,0,0-6.9-2.569l-3.135-.907,2.038-1.562c1.15-.857,3.762-3.073,5.9-4.937a126.827,126.827,0,0,1,17.924-12.394,64.988,64.988,0,0,1,12.489-4.333C239.274-493.243,253.8-492.739,255.421-492.134ZM81.148-478.984c4.233,2.066,5.644,4.081,3.867,5.542-1.2.957-7.734.252-11.026-1.209-4.18-1.864-4.808-4.031-1.515-5.391C74.146-480.748,78.64-480.194,81.148-478.984Zm25.239,5.038a4.177,4.177,0,0,1,1.933,1.562c.523,1.008.418,1.31-.784,2.318a11.516,11.516,0,0,1-7.891,1.965c-2.508-.4-5.644-2.116-5.33-2.973.209-.655,7.838-3.376,9.615-3.376A7.648,7.648,0,0,1,106.388-473.946Zm74.621.5c2.665,1.511,5.853,2.469,12.7,3.829,8.936,1.763,12.28,2.922,18.812,6.348,5.33,2.821,14.057,8.414,13.691,8.817a55.01,55.01,0,0,1-5.382-3.174,113.156,113.156,0,0,0-11.026-6.046c-5.9-2.821-7.211-3.174-25.239-7.255-6.114-1.36-7.107-1.814-6.218-2.821C179.075-474.6,178.918-474.652,181.009-473.442Zm-51.681,2.721c4.6,1.965,5.487,1.915,1.1-.05a10.063,10.063,0,0,1-2.717-1.461c.418-.353,9.249,1.814,13.43,3.275,4.442,1.562,10.66,4.635,12.019,5.895.679.6.627.857-.314,1.814-2.561,2.771-3.815,5.189-3.815,7.406,0,2.821-.157,2.67-4.964-4.635-2.508-3.879-4.442-6.2-6.636-7.96a20.731,20.731,0,0,0-3.449-2.469c-.157,0-.1.2.209.4.261.2,1.829,1.461,3.5,2.821,1.62,1.31,2.979,2.62,2.979,2.922a4.712,4.712,0,0,0,1.1,1.814c1.881,2.418,7.264,10.58,7.264,11.134,0,1.209-1.254.353-6.166-4.131a51.658,51.658,0,0,0-15.938-10.429c-7.943-3.577-14.161-4.434-18.5-2.519-2.508,1.058-2.874,2.318-1.254,3.728.523.5,3.762,1.864,7.211,3.073,24.821,8.766,23.306,8.162,28.427,11.638,1.568,1.058,2.926,1.965,2.979,2.015.784.5-4.128,11.84-5.069,11.789a13.294,13.294,0,0,1-2.142-2.368c-.993-1.31-4.076-4.635-6.793-7.406-4.964-4.988-5.017-5.24-.366-2.771.575.3,1.1.4,1.254.252.314-.3-4.964-2.821-5.957-2.821a18.125,18.125,0,0,1-3.658-2.217c-4.076-2.973-9.04-5.945-9.04-5.492a28.373,28.373,0,0,0,4.6,3.174c4.86,2.973,17.558,14.611,20.223,18.49l1.411,2.116-1.045,1.26c-.888,1.108-1.15,1.209-1.672.554a1.331,1.331,0,0,1-.209-1.36c.209-.353.157-.5-.052-.252-.523.453-2.926-1.663-2.561-2.217.157-.252.052-.453-.261-.453-.732,0-3.658-2.922-3.24-3.275.157-.2.1-.252-.209-.151a11.034,11.034,0,0,1-3.4-1.915c-7.891-5.592-18.185-10.479-23.829-11.386-2.926-.5-3.5-.453-4.233.252-1.933,1.864-.784,2.821,17.453,13.956,6.48,3.93,13.221,9.875,14.945,13.1l.941,1.763-2.247,3.98c-2.038,3.628-6.9,9.069-8.047,8.968-.261-.05-.627-.554-.836-1.209-.314-.907-.366-.806-.157.4.209,1.461-.47,2.721-1.359,2.721-.209,0-.993-2.469-1.724-5.492a68.019,68.019,0,0,0-2.456-8.162,21.606,21.606,0,0,1-1.2-3.577c-.052-1.058-6.845-8.414-10.5-11.386-4.86-4.031-9.981-5.391-12.332-3.325-2.561,2.267.157,7.2,8.831,16.273,2.926,3.073,4.7,5.29,4.494,5.643s-.157.453.209.252c1.15-.655,5.748,10.731,5.173,12.9-.157.5-.052.806.209.6.261-.151.47.2.47.756,0,.957-4.912,6.6-5.8,6.6-.261,0-.47-1.058-.47-2.418,0-7.91-3.031-15.921-8.831-23.428-2.717-3.527-5.382-5.24-7.473-4.736-2.822.705-2.247,2.872,2.09,7.91A45.046,45.046,0,0,0,95-416.36c1.881,1.411,3.71,4.786,4.389,8.162.314,1.663,1.1,5.189,1.672,7.91,1.463,6.4.784,8.212-.941,2.67A99.6,99.6,0,0,1,97.3-409.911c0-.1-.1-.1-.209,0-.418.4,1.2,8.766,2.247,11.537,1.672,4.333,1.515,5.34-1.1,6.55a9.4,9.4,0,0,1-2.352.857,11.507,11.507,0,0,1,.47-3.073c.732-3.628,0-7.91-2.247-13.4-2.979-7.1-5.957-10.379-8.1-8.867-1.254.907-.784,2.771,2.142,8.918,2.195,4.685,2.352,5.189,2.352,9.371a29.547,29.547,0,0,1-.575,6.3c-.47,1.814-.627,1.914-2.561,1.914h-2.09l-.1-2.922-.1-2.872-.157,2.872c-.209,2.721-.261,2.872-1.777,3.174a4.05,4.05,0,0,1-1.777.151,19.746,19.746,0,0,1,.523-4.182c.575-3.376.575-4.232,0-5.643-.888-2.066-2.09-2.569-3.867-1.612-1.045.554-1.463,1.411-1.986,3.728a35.878,35.878,0,0,0-.679,4.837,5.062,5.062,0,0,1-.261,2.066c-.47.453-5.7-.5-8.674-1.562-2.874-1.058-2.979-1.159-3.188-3.124a4.2,4.2,0,0,1,.157-2.267,3.3,3.3,0,0,0,.575-1.814,15.945,15.945,0,0,1,.679-2.62c.314-.705.261-.856-.209-.554-.836.453-.418-1.108,1.15-4.031,1.359-2.67,3.083-4.736,7.838-9.371,5.173-5.089,5.539-7.154,1.568-8.766a5.3,5.3,0,0,0-2.456-.554c-.314.1-.157.252.366.252.732.05.523.4-.836,1.562a19.2,19.2,0,0,0-3.449,4.383c-.941,1.612-3.083,5.189-4.755,7.96a57.073,57.073,0,0,0-4.494,9.069,36.869,36.869,0,0,1-1.777,4.484c-.575.554-4.18-2.116-4.18-3.174,0-.705-.1-.705-.523-.05s-.575.655-1.359-.1c-.888-.806-.888-1.058,0-3.93,1.15-4.031,3.815-9.724,4.389-9.371.261.151,1.045-.957,1.829-2.469,1.306-2.569,3.867-5.038,5.226-5.038a.649.649,0,0,0,.627-.705c0-1.058,5.9-4.736,12.176-7.658,5.957-2.721,7.159-3.023,6.741-1.461-.157.554-.052,1.008.157,1.008.261,0,.627-1.058.836-2.418.366-2.066.47-2.217.784-1.108.209.705.366,1.058.418.857.314-2.368,4.494-26.954,5.069-29.725.366-1.763,2.3-1.965,2.3-.2,0,2.368,7.368,7.406,10.869,7.406,3.344,0,4.285-2.62,1.829-4.887L103.3-461.5l1.306.4a50.479,50.479,0,0,1,5.121,2.066c2.038.907,3.762,1.461,3.762,1.209,0-.453-10.451-4.837-11.078-4.686-.261.1-.418-.1-.418-.4,0-.252-.261-.353-.575-.2-.679.4-3.71-.705-3.344-1.26.157-.2-.052-.4-.418-.353-.314,0-2.142-.05-3.919-.05l-3.344-.1.366-2.67c.47-3.577.732-4.383,1.463-4.383.366,0,.941.655,1.254,1.511.888,2.318,4.18,3.476,8.622,3.023a12.753,12.753,0,0,0,4.912-1.31c.784-.554,1.829-1.209,2.352-1.511.627-.353.784-.756.47-1.26-.418-.6.366-.756,4.86-1.008C122.221-472.888,124.677-472.636,129.328-470.722Zm44.992-1.209a19.229,19.229,0,0,1-4.389,1.411,37.307,37.307,0,0,0-11.705,4.837c-3.4,2.116-3.449,2.116-3.449.907a14.57,14.57,0,0,0-.836-3.325c-.47-1.31-.732-2.519-.523-2.67a32.867,32.867,0,0,1,5.121-.907C164.548-472.485,175.052-472.636,174.32-471.931Zm2.926.2a15.349,15.349,0,0,1-2.77,1.713c-3.815,2.066-8.674,6.9-11.705,11.537-1.359,2.116-2.508,4.081-2.613,4.383-.052.3-.679,2.771-1.359,5.441a109.821,109.821,0,0,0-2.874,14.762l-.418,3.023-1.15-3.275c-.627-1.814-1.2-3.728-1.306-4.282a3.969,3.969,0,0,0-.523-1.562c-.784-1.209-1.933-7.86-1.986-11.739-.1-3.879-.052-4.131,1.777-6.751,3.71-5.441,9.04-8.515,19.178-11.134a16.084,16.084,0,0,0,3.919-1.511C176.41-471.881,177.246-472.133,177.246-471.729Zm6.218,1.612,2.822.756L184.3-467.4c-1.1,1.108-2.195,1.864-2.4,1.713a.728.728,0,0,0-.784.353c-.209.4-.157.453.209.252s.627-.151.627.151a1.2,1.2,0,0,1-.47.806c-.836.5-3.658,4.736-5.539,8.313a18.307,18.307,0,0,1-2.352,3.779.535.535,0,0,0-.209.806,1.077,1.077,0,0,1-.314,1.159c-.888,1.108-4.651,13.2-5.539,17.886-.836,4.686-1.1,12.192-.47,15.568.209,1.26.157,2.116-.157,2.116a22.034,22.034,0,0,1-3.71-3.93c-3.606-4.333-3.553-4.182-1.777-10.933a84.705,84.705,0,0,1,10.608-24.435c3.71-6,4.6-9.976,2.561-11.235-2.874-1.763-8.57,3.527-13.482,12.495-1.881,3.376-1.672,2.015.261-2.217a35.877,35.877,0,0,1,13.534-14.913C178.239-471.578,178.082-471.578,183.465-470.117Zm68.664-.6a25.768,25.768,0,0,1,12.385,5.895c3.24,2.569,4.233,4.131,4.964,7.507l.366,1.763-2.247-2.066c-2.874-2.62-5.9-4.283-10.921-5.895-9.092-2.973-25.187-3.527-27.8-.957-2.979,2.872,3.71,6.65,11.757,6.65,2.979,0,10.033,1.36,15.259,2.872a39.689,39.689,0,0,1,15.572,9.17l2.456,2.267v4.686a20.488,20.488,0,0,1-.261,4.686,22.359,22.359,0,0,1-3.135-2.267c-7.629-5.945-15.624-10.278-19.909-10.681-6.48-.655-9.092,3.577-4.285,7.053,2.77,1.965,4.494,2.67,11.13,4.383,10.033,2.62,14.318,5.038,16.722,9.573,1.1,2.015.052,2.519-1.724.856-1.515-1.411-4.755-2.872-6.218-2.872-.523.05.314.453,1.881.957a13.329,13.329,0,0,1,4.128,2.217l1.306,1.31-1.306,2.922c-.732,1.612-1.463,3.376-1.672,3.879-.314.857-.523.705-1.411-1.008-1.463-2.67-5.33-6.4-9.092-8.817l-3.135-1.965,3.919.2,3.919.252-4.442-.6a24.992,24.992,0,0,1-5.748-1.36,12.823,12.823,0,0,0-1.62-.756,28.327,28.327,0,0,1-3.4-1.461c-3.135-1.461-6.845-5.189-8.779-8.766-.47-.857-1.1-1.612-1.359-1.612-.784,0-4.442-4.081-4.389-4.837.052-.353-.209-.5-.575-.353-.366.1-.836-.252-1.045-.806-.157-.6-.523-1.058-.784-1.058-.888,0-5.487-5.189-5.33-6,.1-.655.052-.655-.366-.1-.366.554-.941.353-2.874-1.209-1.306-1.008-2.4-2.217-2.4-2.569,0-.4-.47-.705-1.045-.705-1.568,0-4.18-1.411-4.18-2.267,0-.655,1.1-1.511,2.352-1.763a47.375,47.375,0,0,0,6.062-2.318c4.86-2.015,7.107-2.62,13.534-3.779C244.6-471.578,247.216-471.629,252.128-470.722ZM191.773-468.4c3.658.705,3.815,1.008,2.09,4.182a11.034,11.034,0,0,0-1.15,2.62c-.1,1.209-2.038,5.24-2.456,4.988-.261-.151-.314.1-.157.554a1.745,1.745,0,0,1-.418,1.663c-1.568,1.713-2.874,7.507-3.553,15.215a84.861,84.861,0,0,1-1.568,9.824,75.632,75.632,0,0,0-1.515,12.847l-.314,7.809-1.254-6.046c-2.142-10.429-1.1-22.319,3.135-35.318.888-2.721,2.09-6.55,2.717-8.414,1.2-3.627.941-4.937-.888-5.29-2.456-.5-8.1,8.363-11.444,18.037a57.35,57.35,0,0,0-3.867,19.9c-.209,5.895-.1,7.809.784,11.588a29.587,29.587,0,0,1,.888,4.685,7.316,7.316,0,0,1-2.3-1.763c-2.456-2.217-3.188-4.786-3.188-10.933.052-11.487,5.853-29.373,12.7-39.1,2.247-3.174,7.107-8.011,7.838-7.809C188.22-469.059,189.944-468.707,191.773-468.4Zm8.413,2.015a65.527,65.527,0,0,1,6.689,2.318c3.135,1.31,3.292,1.461,3.344,3.174l.052,1.814.418-1.511.418-1.511.052,1.461a23.6,23.6,0,0,1-1.724,5.794c-.941,2.368-1.933,4.786-2.142,5.34a4.709,4.709,0,0,0-.47,1.511c-.052.252-.366,1.411-.679,2.519a68.029,68.029,0,0,0-1.15,9.321,61.657,61.657,0,0,0,1.568,19.9,73.9,73.9,0,0,0,4.755,13.6l1.463,3.023-1.881.151c-2.4.2-2.665-.05-3.867-3.728-.523-1.663-.993-2.62-.993-2.166a10.487,10.487,0,0,0,.732,2.973,7,7,0,0,1,.575,2.368,11.423,11.423,0,0,1-3.135-.6c-3.24-.907-4.233-1.965-6.271-6.4-2.822-6.247-4.128-15.064-3.4-23.428.47-5.492,1.724-9.824,4.7-16.626,2.247-5.089,2.613-8.263,1.15-9.824-2.247-2.418-5.173.05-8.309,7.1-2.665,5.945-2.77,8.464-.784,15.82a46.794,46.794,0,0,1,1.62,8.565,51.687,51.687,0,0,0,2.613,15.467c.784,2.368,1.359,4.434,1.2,4.635-.1.252-.888.4-1.724.4-1.411,0-1.568-.2-3.083-4.686-3.5-10.278-4.912-18.138-4.912-27.307,0-7.86.836-11.386,5.017-20.959,1.829-4.282,3.5-8.162,3.658-8.666C196.111-467.6,196.111-467.6,200.186-466.389Zm-78.749,1.108a15.375,15.375,0,0,1,3.553,1.36A15.512,15.512,0,0,1,121.8-461.7l-3.188,1.914L115.9-460.6c-4.128-1.159-4.233-1.31-2.979-3.728.993-1.864,1.306-2.066,3.031-2.066A25.283,25.283,0,0,1,121.437-465.281Zm-21.9,2.973c1.777.857,3.292,1.663,3.4,1.713.209.151-2.038,3.779-2.3,3.779-.679,0-4.442-2.116-5.9-3.275-1.515-1.26-2.038-2.67-1.254-3.426C94.212-464.273,96.407-463.82,99.542-462.308Zm74.255,1.26c-.052,2.166-.575,3.325-3.658,8.263-4.964,7.96-9.51,19.246-11.078,27.71-.47,2.519-.418,2.721,1.411,5.34a63.058,63.058,0,0,0,5.121,5.945l3.292,3.224-2.142.353c-2.508.4-4.128,1.763-4.128,3.426,0,2.318,4.233,4.937,13.586,8.363a29.307,29.307,0,0,1,12.959,8.565c3.031,3.426,3.188,4.282,1.724,8.313L190-379.027l-1.933-3.325a31.759,31.759,0,0,0-11.392-11.437c-5.278-3.376-8.674-4.534-10.66-3.678-1.777.756-1.724,2.821,0,3.93a45.63,45.63,0,0,0,6.114,2.569,39.816,39.816,0,0,1,6.009,2.569,60.247,60.247,0,0,1,5.853,6.6c4.337,5.441,4.546,5.844,4.024,7.2a13.038,13.038,0,0,1-1.672,2.771l-1.1,1.31-.888-2.67c-1.515-4.434-5.173-8.766-10.712-12.545-2.561-1.763-5.487-2.116-6.009-.756-.314.806.784,2.015,7.211,7.658a17.976,17.976,0,0,1,5.382,9.321c.261,1.562.1,1.763-2.665,3.527-1.568,1.008-2.979,1.663-3.083,1.461a9.275,9.275,0,0,1-.627-2.116c-.575-2.519-2.195-5.441-3.344-6.046-1.306-.655-1.411-.655-2.352.3-1.15,1.058-1.045,2.922.314,6.6.627,1.713,1.045,3.224.888,3.376-.679.655-6.95,1.864-8.936,1.713l-2.247-.151-.941-3.275c-1.568-5.189-1.359-9.925.575-15.971,2.038-6.247,2.09-7.557.418-8.313-1.672-.705-2.665-.3-3.71,1.612-1.15,2.116-2.09,17.079-1.411,21.916.261,1.915.47,3.577.418,3.577,0,.05-2.038-.2-4.442-.554-4.964-.705-5.539-1.159-6.114-4.686-.993-6.3,1.2-14.963,6.114-24.486,3.4-6.449,3.658-8.716,1.045-8.112-2.822.705-3.867,2.217-4.964,7.154a40.972,40.972,0,0,1-3.4,8.565c-3.031,5.744-4.337,10.076-4.442,14.56l-.052,3.124-1.306-.655a28.449,28.449,0,0,1-4.7-4.182,35.513,35.513,0,0,0-4.442-4.031c-.941-.453-.993-.756-.47-4.282a29.1,29.1,0,0,1,1.933-6.6,104.065,104.065,0,0,1,12.489-18.541A32.482,32.482,0,0,0,144.8-409.1c.679-1.612.209-3.275-1.045-3.627-2.038-.655-4.442,1.612-8.413,7.91-1.515,2.418-4.337,6.852-6.271,9.875a53.233,53.233,0,0,0-5.853,10.883c-.261.806-.523.655-1.829-1.008a37.9,37.9,0,0,0-4.912-4.887c-1.933-1.612-3.5-3.224-3.5-3.527a17.709,17.709,0,0,1,1.515-3.678c1.881-3.829,5.9-7.809,14.475-14.409,6.427-4.988,9.249-7.658,10.294-9.824,1.1-2.368-1.1-2.721-5.539-.907-.888.353-.941.3-.366-.6.575-.806.418-1.31-.836-3.275a35.107,35.107,0,0,0-3.971-4.837c-2.77-2.821-2.926-3.124-1.515-3.124a8.158,8.158,0,0,0,2.926-1.31l1.986-1.26,1.254,1.159a36.061,36.061,0,0,1,3.188,3.527,12.049,12.049,0,0,0,2.195,2.418,23.357,23.357,0,0,0,2.822-3.779l2.561-3.829.941,1.562c1.1,1.663,3.031,2.015,4.128.756.679-.756.47-6.9-.314-11.235-.575-2.872.627-1.713,1.306,1.26.888,3.879,5.278,17.382,5.853,17.986.784.856.993.05,1.463-6.046.732-8.615,1.515-11.588,5.278-19.6,2.613-5.643,8.256-11.638,10.451-11.185C173.641-463.618,173.85-462.913,173.8-461.048Zm-40.5,1.26a68.232,68.232,0,0,1,9.145,6.953L147.2-448.5l.941,5.592c.679,4.031.784,5.945.418,6.9-.732,1.864-1.986,1.713-3.031-.353-.784-1.663-.784-1.914.261-5.189,1.515-4.585,1.463-5.492-.261-6.4-.836-.4-3.031-1.713-4.964-2.973-3.083-2.015-11.967-5.794-16.46-7-.941-.252-1.724-.6-1.724-.806,0-.353,5.644-3.577,6.271-3.628C128.805-462.358,130.9-461.2,133.3-459.789Zm83.086.554a49.79,49.79,0,0,1,4.912,3.124l1.306,1.058-.732,4.534c-1.1,6.4-.157,24.536,1.359,26.854.627.907.627.957-.314-3.325-.366-1.663,1.881,2.066,5.226,8.817,1.254,2.569,3.919,7.2,5.853,10.328s3.606,5.844,3.71,6.046c.1.252-.47.4-1.359.4-1.411,0-1.777-.4-4.128-4.434a124.754,124.754,0,0,1-7.525-14.46c-.523-1.411-.836-1.864-.627-1.008.418,2.166,2.561,6.7,6.532,13.7,2.665,4.736,3.292,6.2,2.717,6.4a18.689,18.689,0,0,1-4.285.3c-4.233,0-5.435-.705-7.473-4.383-3.971-7.053-4.964-18.591-2.717-31.791,1.359-8.061.314-12.7-2.874-12.7-2.717,0-4.18,3.527-5.539,13.25-1.829,13.452-.679,25.8,3.083,33.454,2.142,4.333,2.09,4.182,1.2,4.182-.941,0-3.658-5.391-5.591-10.983-2.456-7.1-3.292-12.9-3.292-22.269,0-9.522.888-14.157,4.389-22.873a40.68,40.68,0,0,0,2.038-5.693C212.258-461.6,212.362-461.6,216.386-459.235Zm11.13,7.406a97.859,97.859,0,0,1,18.76,19.8,12.989,12.989,0,0,1,2.038,3.527,9.9,9.9,0,0,0,.784,2.166c.679,1.26.732,1.31.47.252-.314-1.209-.261-1.209.47-.252a122.873,122.873,0,0,1,7.577,12.8,10.144,10.144,0,0,1,.627,2.872c0,1.058-.261,1.209-1.829,1.209-2.09,0-5.069,1.31-7.525,3.325l-1.672,1.36-1.306-1.209a39.516,39.516,0,0,1-3.919-4.887,27.059,27.059,0,0,1-4.651-11.588l-.418-2.368-.1,2.015-.1,2.015-.47-2.015c-.575-2.721-.523-10.883.052-9.573,1.359,2.973-.47-5.29-2.038-9.321-.888-2.318-3.5-4.534-5.382-4.534a4.27,4.27,0,0,0-2.247,1.31c-1.62,1.663-2.038,5.089-1.672,13.2.157,3.879.052,6.046-.209,5.592-.941-1.411-2.09-6.046-2.561-10.127-.523-5.139.366-18.541,1.306-18.541A45.088,45.088,0,0,1,227.516-451.829Zm-28.688,1.108c.209.151-.523,2.569-1.724,5.391a56.188,56.188,0,0,0-2.4,6.6c-.209,1.008-.679,1.562-1.2,1.562-1.62,0-2.3-.907-2.561-3.426-.261-2.67,1.306-7.557,3.606-11.134l1.045-1.663L197-452.232C197.783-451.577,198.619-450.922,198.828-450.72Zm-15.938,1.562c-.261.907-1.045,3.678-1.672,6.2l-1.15,4.534-2.979.151c-1.62.1-2.979-.05-2.979-.252a54.154,54.154,0,0,1,1.568-5.29l1.568-4.786,2.456-1.058C183.256-451.123,183.569-451.073,182.89-449.158Zm-69.5.4,2.456,1.008v3.527a17.972,17.972,0,0,1-.157,3.527,85.241,85.241,0,0,1-8.988-5.441c0-.5,3.292-3.628,3.815-3.628A19.592,19.592,0,0,1,113.39-448.755Zm14.266,8.363a16.436,16.436,0,0,1,3.083,2.67c0,.756-1.881,1.965-3.867,2.519-1.986.5-2.247.4-5.382-1.612-3.4-2.217-3.919-3.174-2.352-4.484C121.594-443.415,123.946-443.163,127.656-440.392Zm-22.888,4.434c3.188,2.721,6.636,6.3,6.636,6.953,0,.1-1.515,1.663-3.344,3.527l-3.4,3.325-4.076-4.383c-6.166-6.55-5.853-5.592-2.979-9.371a14.483,14.483,0,0,1,2.926-3.275A35.39,35.39,0,0,1,104.768-435.958Zm81.884,5.744c0,4.534,2.09,13.654,4.912,21.614l1.306,3.678h-1.463a32.748,32.748,0,0,1-4.389-.554l-2.926-.6-.366-2.267c-.888-5.592,1.1-25.292,2.456-24.486A4.731,4.731,0,0,1,186.652-430.215Zm-7.525-.1a24,24,0,0,0-.314,4.534v3.728h-6.793v-2.418a33.546,33.546,0,0,1,.314-4.232c.314-1.713.523-1.864,2.247-2.066C178.971-431.222,179.441-431.172,179.128-430.315Zm75.3,1.26c4.755,2.469,11.653,7.305,11.653,8.212a2.73,2.73,0,0,0,.993,1.511,10.468,10.468,0,0,1,1.881,2.821c.888,1.915.888,1.965-.261,3.779-1.62,2.519-3.135,3.325-6.323,3.426l-2.717.1-.836-3.275a32.336,32.336,0,0,0-3.606-7.708c-1.515-2.469-2.613-4.635-2.456-4.887s-.157-.756-.784-1.108a2.123,2.123,0,0,1-1.045-1.461,1.237,1.237,0,0,0-.732-1.108,3.321,3.321,0,0,1-1.359-1.31C247.9-431.777,249.829-431.424,254.428-429.056ZM116-419.836c2.561,7.557,2.613,6.9-.993,9.623A18.54,18.54,0,0,1,111.718-408a30.553,30.553,0,0,1-1.1-2.973,45.873,45.873,0,0,0-2.926-6.449,40.749,40.749,0,0,1-2.038-4.081,24.284,24.284,0,0,1,3.24-3.476l3.24-3.124,1.15,1.814A40.449,40.449,0,0,1,116-419.836Zm-39.662-2.519c.993,1.108-.47,3.325-5.069,7.759-5.7,5.441-8.309,10.731-9.72,19.548l-.314,2.116,2.508,1.008a35.048,35.048,0,0,0,3.919,1.36c1.306.353,1.411.554,1.411,2.721-.052,3.124-1.359,5.744-4.808,9.371-1.568,1.663-3.815,4.333-5.017,5.945-1.15,1.612-2.247,2.721-2.4,2.469-.836-1.31-2.351-9.119-2.09-10.58a8.2,8.2,0,0,0-.314-3.678c-.575-1.562-.575-2.922-.052-6.8a35.9,35.9,0,0,1,.888-5.341c.157-.252.784-.05,1.306.4,1.306,1.159,1.568.806,3.292-4.383A40.055,40.055,0,0,1,63.956-409c1.463-2.318,3.71-6.046,4.964-8.212a31.36,31.36,0,0,1,3.135-4.937C73.049-423.212,75.5-423.363,76.341-422.355Zm102,6.852c1.254,0,1.411.3,2.456,4.131a39.061,39.061,0,0,1,.941,4.333,24.992,24.992,0,0,1-3.71-1.26c-3.553-1.411-3.606-1.461-4.285-3.93-.993-3.829-.993-3.98,1.306-3.577A29.765,29.765,0,0,0,178.344-415.5Zm15.415,11.588H198.1l.941,1.612a5.149,5.149,0,0,1,.732,2.418c-.209,1.26-2.77,6.55-3.135,6.5a25.854,25.854,0,0,1-2.926-3.325,56.163,56.163,0,0,0-5.226-5.592l-2.613-2.267,1.777.3A42.469,42.469,0,0,0,193.759-403.915ZM43.786-388.246c5.382.1,8,1.058,9.667,3.627a4.353,4.353,0,0,1-.523,5.592c-1.306,1.209-1.881.806-2.926-2.166-1.1-3.275-2.508-4.383-6.636-5.341-4.337-.957-5.121-1.26-5.121-1.864,0-.252.209-.353.418-.2A30.247,30.247,0,0,0,43.786-388.246Zm42.013,13.3a36.679,36.679,0,0,1-3.4,3.829c-3.71,3.879-4.024,4.837-2.77,9.17.836,3.124.418,3.98-1.672,3.325a5.377,5.377,0,0,1-3.658-4.585c0-3.476,3.083-7.557,7.211-9.573a12.445,12.445,0,0,0,2.822-1.763C84.859-375.2,85.8-375.449,85.8-374.946Z" transform="translate(0)" fill="#eaf3e6"/>
    <path id="Path_969" data-name="Path 969" d="M184.14-550.136c-1.306,2.872-1.62,19.5-.366,21.967,1.306,2.67,4.7,3.678,7.838,2.267,1.933-.857,1.777-3.325-.523-6.9-2.351-3.829-3.4-7.809-3.4-13.4,0-4.585-.418-5.794-1.986-5.794C185.342-552,184.611-551.143,184.14-550.136Zm2.508.453a18.88,18.88,0,0,1,.523,5.139c.052,5.24.732,7.809,3.135,11.789,3.135,5.038,2.665,6.65-1.881,6.348-1.986-.1-2.665-.4-3.553-1.562-.993-1.31-1.1-2.066-1.1-10.076,0-8.464.627-12.948,1.881-12.948C185.917-550.992,186.387-550.388,186.649-549.682Z" transform="translate(-73.154 -80.65)" fill="#eaf3e6"/>
    <path id="Path_970" data-name="Path 970" d="M197.638-545.4c-.784.756-.836,6.65-.052,8.111.993,1.814,3.24,3.879,4.233,3.879,1.515,0,2.195-2.318,1.515-5.038-1.045-3.829-3.344-7.557-4.755-7.557A2.171,2.171,0,0,0,197.638-545.4Zm3.553,3.527c1.568,3.174,2.09,7.1,1.045,7.708-1.724,1.058-4.651-3.426-4.7-7.154C197.534-546,199.049-546.252,201.192-541.869Z" transform="translate(-79.859 -83.627)" fill="#eaf3e6"/>
    <path id="Path_971" data-name="Path 971" d="M82.521-403.177c-4.86,2.267-15.468,11.689-16.2,14.409-.47,1.915,1.045,4.686,3.344,5.945,1.568.907,1.777.907,2.926.151.836-.5,1.672-1.965,2.4-4.182,1.62-4.837,3.083-7,7-10.631,3.658-3.426,5.017-4.988,5.017-5.945C87.015-404.639,85.5-404.538,82.521-403.177Zm3.449.151c0,.3-1.986,2.519-4.389,4.887-4.494,4.484-6.062,6.751-7.107,10.631-1.306,4.786-3.449,5.844-5.957,2.973-2.038-2.318-1.829-4.484.627-7.1C75.414-398.391,85.97-405.545,85.97-403.026Z" transform="translate(-17.415 -153.95)" fill="#eaf3e6"/>
    <path id="Path_972" data-name="Path 972" d="M98.25-390.738a12.562,12.562,0,0,0-3.5,3.325c-1.411,2.066-1.672,2.821-1.568,4.736s.366,2.368,1.254,2.469c1.62.2,3.762-1.713,5.435-4.988,1.672-3.174,2.038-5.744.836-6.147A4.114,4.114,0,0,0,98.25-390.738Zm2.665.907c0,1.612-2.979,7-4.442,8.162-2.4,1.763-3.344.756-2.613-2.821C94.488-387.816,100.915-392.653,100.915-389.831Z" transform="translate(-30.27 -160.343)" fill="#eaf3e6"/>
    <path id="Path_973" data-name="Path 973" d="M120.524-227.961a3.522,3.522,0,0,0-1.15,1.763c0,.353-.627.907-1.411,1.209l-1.463.554,1.463-.252a2.4,2.4,0,0,1,2.247.5c1.1,1.058,4.7,1.008,5.121-.05a.833.833,0,0,1,1.045-.554c.523.2.627,0,.47-.705-.314-1.058.836-1.31,1.777-.4.836.806.157,3.023-1.1,3.476-.941.4-.941.453-.157.453.836.05.941.4.836,2.318-.261,4.131.418,2.821.993-1.965.366-2.62.627-4.988.627-5.24s-.627-.353-1.463-.2a2.673,2.673,0,0,1-2.4-.857A4.184,4.184,0,0,0,120.524-227.961Z" transform="translate(-41.413 -240.947)" fill="#eaf3e6"/>
    <path id="Path_974" data-name="Path 974" d="M145.662-193.346c-1.15,1.108-.627,2.569,1.672,4.736,3.4,3.124,7.107,3.476,7.107.655,0-1.31-3.031-4.484-5.069-5.29C147.282-194.1,146.446-194.1,145.662-193.346Z" transform="translate(-55.056 -258.331)" fill="#eaf3e6"/>
    <path id="Path_975" data-name="Path 975" d="M115.551-151.954c-.209,1.108-.523,2.015-.784,2.015-.418,0-1.045,2.872-1.463,6.6-.052.4-3.031,3.577-6.689,7.053C100.658-130.592,97-126.36,97-125.1c0,.252.836-.756,1.881-2.217,2.822-4.081,7-8.011,8.57-8.061.993,0,1.1-.1.418-.353-.784-.3-.47-.705,1.62-2.519a23.237,23.237,0,0,1,2.874-2.116c.784,0-.47,4.383-1.463,5.189-.732.554-.836.856-.314.756.836-.151.941.705.366,3.376-.784,3.93-.993,5.29-.732,5.29a17.521,17.521,0,0,0,1.15-3.779c.523-2.066,1.15-3.779,1.359-3.779.888,0,3.135,4.534,3.867,7.86s.732,3.376.523.856c-.261-2.973-1.829-6.852-3.5-8.565l-1.1-1.108,1.411-6.2a106.3,106.3,0,0,0,2.142-10.883C116.544-154.423,116.073-154.926,115.551-151.954Z" transform="translate(-32.103 -278.16)" fill="#eaf3e6"/>
  </g>
</svg>
